%
M48
M72
T01C0.0120
T02C0.0157
T03C0.0630
%
T01
X1251Y3401
X1251Y9401
X4551Y12751
X5951Y12451
X6951Y14001
X7251Y15401
X6051Y15401
X8051Y12751
X7251Y9401
X6051Y9401
X6051Y3401
X7251Y3401
X12051Y3401
X13251Y3401
X16951Y6451
X17851Y6151
X18151Y5151
X19151Y5151
X19251Y3401
X18051Y3401
X18051Y9401
X19251Y9401
X17951Y12251
X16551Y12651
X18051Y15401
X19251Y15401
X22551Y12751
X24051Y12451
X26051Y12751
X25251Y15401
X24051Y15401
X24651Y18851
X24051Y21401
X24651Y21951
X25251Y21401
X24351Y23451
X25251Y24451
X24851Y25351
X24051Y24851
X23651Y25351
X22551Y24151
X20051Y24751
X19351Y25051
X18751Y23951
X17951Y24551
X17551Y24951
X18051Y27401
X19251Y27401
X19651Y30151
X20251Y30351
X19951Y31051
X20651Y31751
X21051Y30351
X22501Y30301
X22651Y31351
X23751Y30251
X25051Y30351
X25051Y31051
X26031Y30891
X26021Y31401
X26051Y30051
X25051Y28951
X25251Y27401
X24051Y27401
X26351Y24651
X28551Y24251
X28851Y24051
X29951Y24551
X30051Y27401
X30651Y28451
X28751Y30451
X27651Y30401
X27151Y30401
X28151Y31951
X28751Y31951
X28201Y32601
X28051Y33651
X26401Y33101
X19851Y33251
X18251Y32551
X18051Y33251
X18051Y35151
X18051Y36401
X15951Y32951
X16651Y30951
X18251Y30951
X14451Y30951
X12451Y34151
X11851Y33851
X11051Y32951
X11051Y32451
X12151Y34951
X12351Y35951
X12051Y36401
X13251Y36401
X8451Y33551
X7951Y32651
X6651Y33751
X6351Y33551
X5451Y32951
X3651Y31551
X1851Y32951
X1251Y36401
X6051Y36401
X6351Y35651
X6951Y36151
X7251Y36401
X7851Y30251
X6951Y27851
X7251Y27401
X6051Y27401
X5951Y24551
X4551Y24251
X3751Y24551
X1251Y27401
X1251Y21401
X651Y20051
X2651Y18051
X1251Y15401
X6051Y21401
X7251Y21401
X6851Y19851
X10551Y24151
X11851Y24551
X13551Y24251
X12851Y21751
X13251Y21401
X12051Y21401
X12051Y27401
X13251Y27401
X18051Y21401
X19251Y21401
X13251Y15401
X12051Y15401
X11851Y12451
X12051Y9401
X13251Y9401
X24051Y9401
X25251Y9401
X30051Y9401
X29951Y12451
X30051Y15401
X29051Y18051
X28551Y18751
X28251Y18051
X30051Y21401
X30051Y3401
X25251Y3401
X24051Y3401
T02
X23901Y32151
X24741Y32171
X25521Y32141
X24651Y35651
X29401Y37151
X29901Y37151
X19901Y37401
X13421Y38501
X12901Y34901
T03
X15651Y36401
X15651Y31651
X12151Y31651
X8651Y31651
X5151Y31651
X1651Y31651
X3651Y27401
X3651Y21401
X3651Y15401
X3651Y9401
X3651Y3401
X9651Y3401
X9651Y9401
X9651Y15401
X9651Y21401
X9651Y27401
X15651Y27401
X19151Y31651
X21651Y27401
X21651Y21401
X21651Y15401
X21651Y9401
X21651Y3401
X15651Y3401
X15651Y9401
X15651Y15401
X15651Y21401
X27651Y21401
X27651Y27401
X27651Y15401
X27651Y9401
X27651Y3401
X9651Y36401
X3651Y36401
M30
