G75*
G70*
%OFA0B0*%
%FSLAX24Y24*%
%IPPOS*%
%LPD*%
%AMOC8*
5,1,8,0,0,1.08239X$1,22.5*
%
%ADD10C,0.0010*%
%ADD11C,0.0039*%
%ADD12R,0.0827X0.0631*%
%ADD13C,0.0000*%
%ADD14C,0.0670*%
%ADD15R,0.0670X0.0500*%
%ADD16R,0.0720X0.0060*%
%ADD17R,0.0552X0.0631*%
%ADD18R,0.0631X0.0552*%
%ADD19R,0.0709X0.1615*%
%ADD20R,0.0631X0.1615*%
%ADD21R,0.2040X0.0760*%
%ADD22R,0.0591X0.1142*%
%ADD23R,0.0591X0.0512*%
%ADD24R,0.0021X0.0007*%
%ADD25R,0.0035X0.0007*%
%ADD26R,0.0042X0.0007*%
%ADD27R,0.0063X0.0007*%
%ADD28R,0.0070X0.0007*%
%ADD29R,0.0091X0.0007*%
%ADD30R,0.0105X0.0007*%
%ADD31R,0.0119X0.0007*%
%ADD32R,0.0133X0.0007*%
%ADD33R,0.0147X0.0007*%
%ADD34R,0.0161X0.0007*%
%ADD35R,0.0175X0.0007*%
%ADD36R,0.0189X0.0007*%
%ADD37R,0.0203X0.0007*%
%ADD38R,0.0224X0.0007*%
%ADD39R,0.0231X0.0007*%
%ADD40R,0.0231X0.0007*%
%ADD41R,0.0231X0.0007*%
%ADD42R,0.0231X0.0007*%
%ADD43R,0.0224X0.0007*%
%ADD44R,0.0224X0.0007*%
%ADD45R,0.1043X0.0007*%
%ADD46R,0.0896X0.0007*%
%ADD47R,0.1036X0.0007*%
%ADD48R,0.0896X0.0007*%
%ADD49R,0.1022X0.0007*%
%ADD50R,0.1015X0.0007*%
%ADD51R,0.1001X0.0007*%
%ADD52R,0.0994X0.0007*%
%ADD53R,0.0980X0.0007*%
%ADD54R,0.0973X0.0007*%
%ADD55R,0.0959X0.0007*%
%ADD56R,0.0952X0.0007*%
%ADD57R,0.0945X0.0007*%
%ADD58R,0.0938X0.0007*%
%ADD59R,0.0924X0.0007*%
%ADD60R,0.0917X0.0007*%
%ADD61R,0.0903X0.0007*%
%ADD62R,0.0889X0.0007*%
%ADD63R,0.0875X0.0007*%
%ADD64R,0.0868X0.0007*%
%ADD65R,0.0854X0.0007*%
%ADD66R,0.0140X0.0007*%
%ADD67R,0.0133X0.0007*%
%ADD68R,0.0140X0.0007*%
%ADD69R,0.0133X0.0007*%
%ADD70R,0.0189X0.0007*%
%ADD71R,0.0245X0.0007*%
%ADD72R,0.0770X0.0007*%
%ADD73R,0.0623X0.0007*%
%ADD74R,0.0280X0.0007*%
%ADD75R,0.0770X0.0007*%
%ADD76R,0.0693X0.0007*%
%ADD77R,0.0315X0.0007*%
%ADD78R,0.0728X0.0007*%
%ADD79R,0.0343X0.0007*%
%ADD80R,0.0777X0.0007*%
%ADD81R,0.0742X0.0007*%
%ADD82R,0.0371X0.0007*%
%ADD83R,0.0756X0.0007*%
%ADD84R,0.0385X0.0007*%
%ADD85R,0.0763X0.0007*%
%ADD86R,0.0413X0.0007*%
%ADD87R,0.0777X0.0007*%
%ADD88R,0.0427X0.0007*%
%ADD89R,0.0441X0.0007*%
%ADD90R,0.0784X0.0007*%
%ADD91R,0.0469X0.0007*%
%ADD92R,0.0791X0.0007*%
%ADD93R,0.0476X0.0007*%
%ADD94R,0.0483X0.0007*%
%ADD95R,0.0798X0.0007*%
%ADD96R,0.0497X0.0007*%
%ADD97R,0.0798X0.0007*%
%ADD98R,0.0644X0.0007*%
%ADD99R,0.0805X0.0007*%
%ADD100R,0.0784X0.0007*%
%ADD101R,0.0651X0.0007*%
%ADD102R,0.0812X0.0007*%
%ADD103R,0.0784X0.0007*%
%ADD104R,0.0819X0.0007*%
%ADD105R,0.0658X0.0007*%
%ADD106R,0.0819X0.0007*%
%ADD107R,0.0658X0.0007*%
%ADD108R,0.1484X0.0007*%
%ADD109R,0.1071X0.0007*%
%ADD110R,0.1057X0.0007*%
%ADD111R,0.0371X0.0007*%
%ADD112R,0.1050X0.0007*%
%ADD113R,0.0364X0.0007*%
%ADD114R,0.0357X0.0007*%
%ADD115R,0.0490X0.0007*%
%ADD116R,0.0504X0.0007*%
%ADD117R,0.1372X0.0007*%
%ADD118R,0.0350X0.0007*%
%ADD119R,0.1372X0.0007*%
%ADD120R,0.0483X0.0007*%
%ADD121R,0.0350X0.0007*%
%ADD122R,0.0476X0.0007*%
%ADD123R,0.0833X0.0007*%
%ADD124R,0.0469X0.0007*%
%ADD125R,0.0385X0.0007*%
%ADD126R,0.0833X0.0007*%
%ADD127R,0.0469X0.0007*%
%ADD128R,0.0567X0.0007*%
%ADD129R,0.0252X0.0007*%
%ADD130R,0.0567X0.0007*%
%ADD131R,0.0252X0.0007*%
%ADD132R,0.0560X0.0007*%
%ADD133R,0.0553X0.0007*%
%ADD134R,0.0553X0.0007*%
%ADD135R,0.0546X0.0007*%
%ADD136R,0.0364X0.0007*%
%ADD137R,0.0546X0.0007*%
%ADD138R,0.0371X0.0007*%
%ADD139R,0.0539X0.0007*%
%ADD140R,0.0378X0.0007*%
%ADD141R,0.0252X0.0007*%
%ADD142R,0.0392X0.0007*%
%ADD143R,0.0252X0.0007*%
%ADD144R,0.0399X0.0007*%
%ADD145R,0.0406X0.0007*%
%ADD146R,0.0420X0.0007*%
%ADD147R,0.0427X0.0007*%
%ADD148R,0.0441X0.0007*%
%ADD149R,0.0245X0.0007*%
%ADD150R,0.0448X0.0007*%
%ADD151R,0.0462X0.0007*%
%ADD152R,0.0217X0.0007*%
%ADD153R,0.0224X0.0007*%
%ADD154R,0.0259X0.0007*%
%ADD155R,0.0357X0.0007*%
%ADD156R,0.0287X0.0007*%
%ADD157R,0.0567X0.0007*%
%ADD158R,0.0217X0.0007*%
%ADD159R,0.0553X0.0007*%
%ADD160R,0.0392X0.0007*%
%ADD161R,0.0217X0.0007*%
%ADD162R,0.0399X0.0007*%
%ADD163R,0.0532X0.0007*%
%ADD164R,0.0525X0.0007*%
%ADD165R,0.0511X0.0007*%
%ADD166R,0.0406X0.0007*%
%ADD167R,0.0497X0.0007*%
%ADD168R,0.0406X0.0007*%
%ADD169R,0.0455X0.0007*%
%ADD170R,0.0217X0.0007*%
%ADD171R,0.0399X0.0007*%
%ADD172R,0.0511X0.0007*%
%ADD173R,0.0210X0.0007*%
%ADD174R,0.0378X0.0007*%
%ADD175R,0.0539X0.0007*%
%ADD176R,0.0357X0.0007*%
%ADD177R,0.0259X0.0007*%
%ADD178R,0.0238X0.0007*%
%ADD179R,0.0336X0.0007*%
%ADD180R,0.0210X0.0007*%
%ADD181R,0.0238X0.0007*%
%ADD182R,0.0329X0.0007*%
%ADD183R,0.0322X0.0007*%
%ADD184R,0.0308X0.0007*%
%ADD185R,0.0539X0.0007*%
%ADD186R,0.0511X0.0007*%
%ADD187R,0.0497X0.0007*%
%ADD188R,0.0476X0.0007*%
%ADD189R,0.0462X0.0007*%
%ADD190R,0.0203X0.0007*%
%ADD191R,0.0462X0.0007*%
%ADD192R,0.0434X0.0007*%
%ADD193R,0.0420X0.0007*%
%ADD194R,0.0406X0.0007*%
%ADD195R,0.0560X0.0007*%
%ADD196R,0.0553X0.0007*%
%ADD197R,0.0399X0.0007*%
%ADD198R,0.0532X0.0007*%
%ADD199R,0.0518X0.0007*%
%ADD200R,0.0504X0.0007*%
%ADD201R,0.0504X0.0007*%
%ADD202R,0.0378X0.0007*%
%ADD203R,0.0448X0.0007*%
%ADD204R,0.0434X0.0007*%
%ADD205R,0.0448X0.0007*%
%ADD206R,0.0371X0.0007*%
%ADD207R,0.0364X0.0007*%
%ADD208R,0.0336X0.0007*%
%ADD209R,0.0294X0.0007*%
%ADD210R,0.0196X0.0007*%
%ADD211R,0.2366X0.0007*%
%ADD212R,0.2366X0.0007*%
%ADD213R,0.0260X0.0540*%
%ADD214R,0.0540X0.0260*%
D10*
X027651Y000151D02*
X029151Y000151D01*
D11*
X000151Y002120D02*
X000151Y018151D01*
X000151Y037433D01*
X000153Y037527D01*
X000160Y037620D01*
X000171Y037713D01*
X000187Y037806D01*
X000207Y037897D01*
X000231Y037988D01*
X000259Y038077D01*
X000292Y038165D01*
X000329Y038251D01*
X000370Y038335D01*
X000415Y038418D01*
X000464Y038498D01*
X000516Y038575D01*
X000572Y038650D01*
X000632Y038722D01*
X000695Y038792D01*
X000761Y038858D01*
X000831Y038921D01*
X000903Y038981D01*
X000978Y039037D01*
X001055Y039089D01*
X001135Y039138D01*
X001218Y039183D01*
X001302Y039224D01*
X001388Y039261D01*
X001476Y039294D01*
X001565Y039322D01*
X001656Y039346D01*
X001747Y039366D01*
X001840Y039382D01*
X001933Y039393D01*
X002026Y039400D01*
X002120Y039402D01*
X002120Y039401D02*
X015651Y039401D01*
X029183Y039401D01*
X029183Y039402D02*
X029277Y039400D01*
X029370Y039393D01*
X029463Y039382D01*
X029556Y039366D01*
X029647Y039346D01*
X029738Y039322D01*
X029827Y039294D01*
X029915Y039261D01*
X030001Y039224D01*
X030085Y039183D01*
X030167Y039138D01*
X030248Y039089D01*
X030325Y039037D01*
X030400Y038981D01*
X030472Y038921D01*
X030542Y038858D01*
X030608Y038792D01*
X030671Y038722D01*
X030731Y038650D01*
X030787Y038575D01*
X030839Y038498D01*
X030888Y038417D01*
X030933Y038335D01*
X030974Y038251D01*
X031011Y038165D01*
X031044Y038077D01*
X031072Y037988D01*
X031096Y037897D01*
X031116Y037806D01*
X031132Y037713D01*
X031143Y037620D01*
X031150Y037527D01*
X031152Y037433D01*
X031151Y037433D02*
X031151Y020901D01*
X031151Y002120D01*
X031152Y002120D02*
X031150Y002026D01*
X031143Y001933D01*
X031132Y001840D01*
X031116Y001747D01*
X031096Y001656D01*
X031072Y001565D01*
X031044Y001476D01*
X031011Y001388D01*
X030974Y001302D01*
X030933Y001218D01*
X030888Y001136D01*
X030839Y001055D01*
X030787Y000978D01*
X030731Y000903D01*
X030671Y000831D01*
X030608Y000761D01*
X030542Y000695D01*
X030472Y000632D01*
X030400Y000572D01*
X030325Y000516D01*
X030248Y000464D01*
X030168Y000415D01*
X030085Y000370D01*
X030001Y000329D01*
X029915Y000292D01*
X029827Y000259D01*
X029738Y000231D01*
X029647Y000207D01*
X029556Y000187D01*
X029463Y000171D01*
X029370Y000160D01*
X029277Y000153D01*
X029183Y000151D01*
X014651Y000151D01*
X002120Y000151D01*
X002026Y000153D01*
X001933Y000160D01*
X001840Y000171D01*
X001747Y000187D01*
X001656Y000207D01*
X001565Y000231D01*
X001476Y000259D01*
X001388Y000292D01*
X001302Y000329D01*
X001218Y000370D01*
X001135Y000415D01*
X001055Y000464D01*
X000978Y000516D01*
X000903Y000572D01*
X000831Y000632D01*
X000761Y000695D01*
X000695Y000761D01*
X000632Y000831D01*
X000572Y000903D01*
X000516Y000978D01*
X000464Y001055D01*
X000415Y001136D01*
X000370Y001218D01*
X000329Y001302D01*
X000292Y001388D01*
X000259Y001476D01*
X000231Y001565D01*
X000207Y001656D01*
X000187Y001747D01*
X000171Y001840D01*
X000160Y001933D01*
X000153Y002026D01*
X000151Y002120D01*
D12*
X003651Y002651D03*
X003651Y004151D03*
X003651Y008651D03*
X003651Y010151D03*
X003651Y014651D03*
X003651Y016151D03*
X003651Y020651D03*
X003651Y022151D03*
X003651Y026651D03*
X003651Y028151D03*
X005151Y030921D03*
X005151Y032381D03*
X003651Y035651D03*
X003651Y037151D03*
X001651Y032381D03*
X001651Y030921D03*
X008651Y030921D03*
X008651Y032381D03*
X009651Y035651D03*
X009651Y037151D03*
X012151Y032381D03*
X012151Y030921D03*
X009651Y028151D03*
X009651Y026651D03*
X009651Y022151D03*
X009651Y020651D03*
X009651Y016151D03*
X009651Y014651D03*
X009651Y010151D03*
X009651Y008651D03*
X009651Y004151D03*
X009651Y002651D03*
X015651Y002651D03*
X015651Y004151D03*
X015651Y008651D03*
X015651Y010151D03*
X015651Y014651D03*
X015651Y016151D03*
X015651Y020651D03*
X015651Y022151D03*
X015651Y026651D03*
X015651Y028151D03*
X015651Y030921D03*
X015651Y032381D03*
X015651Y035651D03*
X015651Y037151D03*
X019151Y032381D03*
X019151Y030921D03*
X021651Y028151D03*
X021651Y026651D03*
X021651Y022151D03*
X021651Y020651D03*
X021651Y016151D03*
X021651Y014651D03*
X021651Y010151D03*
X021651Y008651D03*
X021651Y004151D03*
X021651Y002651D03*
X027651Y002651D03*
X027651Y004151D03*
X027651Y008651D03*
X027651Y010151D03*
X027651Y014651D03*
X027651Y016151D03*
X027651Y020651D03*
X027651Y022151D03*
X027651Y026651D03*
X027651Y028151D03*
D13*
X027336Y027401D02*
X027338Y027436D01*
X027344Y027471D01*
X027354Y027505D01*
X027367Y027538D01*
X027384Y027569D01*
X027405Y027597D01*
X027428Y027624D01*
X027455Y027647D01*
X027483Y027668D01*
X027514Y027685D01*
X027547Y027698D01*
X027581Y027708D01*
X027616Y027714D01*
X027651Y027716D01*
X027686Y027714D01*
X027721Y027708D01*
X027755Y027698D01*
X027788Y027685D01*
X027819Y027668D01*
X027847Y027647D01*
X027874Y027624D01*
X027897Y027597D01*
X027918Y027569D01*
X027935Y027538D01*
X027948Y027505D01*
X027958Y027471D01*
X027964Y027436D01*
X027966Y027401D01*
X027964Y027366D01*
X027958Y027331D01*
X027948Y027297D01*
X027935Y027264D01*
X027918Y027233D01*
X027897Y027205D01*
X027874Y027178D01*
X027847Y027155D01*
X027819Y027134D01*
X027788Y027117D01*
X027755Y027104D01*
X027721Y027094D01*
X027686Y027088D01*
X027651Y027086D01*
X027616Y027088D01*
X027581Y027094D01*
X027547Y027104D01*
X027514Y027117D01*
X027483Y027134D01*
X027455Y027155D01*
X027428Y027178D01*
X027405Y027205D01*
X027384Y027233D01*
X027367Y027264D01*
X027354Y027297D01*
X027344Y027331D01*
X027338Y027366D01*
X027336Y027401D01*
X027336Y021401D02*
X027338Y021436D01*
X027344Y021471D01*
X027354Y021505D01*
X027367Y021538D01*
X027384Y021569D01*
X027405Y021597D01*
X027428Y021624D01*
X027455Y021647D01*
X027483Y021668D01*
X027514Y021685D01*
X027547Y021698D01*
X027581Y021708D01*
X027616Y021714D01*
X027651Y021716D01*
X027686Y021714D01*
X027721Y021708D01*
X027755Y021698D01*
X027788Y021685D01*
X027819Y021668D01*
X027847Y021647D01*
X027874Y021624D01*
X027897Y021597D01*
X027918Y021569D01*
X027935Y021538D01*
X027948Y021505D01*
X027958Y021471D01*
X027964Y021436D01*
X027966Y021401D01*
X027964Y021366D01*
X027958Y021331D01*
X027948Y021297D01*
X027935Y021264D01*
X027918Y021233D01*
X027897Y021205D01*
X027874Y021178D01*
X027847Y021155D01*
X027819Y021134D01*
X027788Y021117D01*
X027755Y021104D01*
X027721Y021094D01*
X027686Y021088D01*
X027651Y021086D01*
X027616Y021088D01*
X027581Y021094D01*
X027547Y021104D01*
X027514Y021117D01*
X027483Y021134D01*
X027455Y021155D01*
X027428Y021178D01*
X027405Y021205D01*
X027384Y021233D01*
X027367Y021264D01*
X027354Y021297D01*
X027344Y021331D01*
X027338Y021366D01*
X027336Y021401D01*
X027336Y015401D02*
X027338Y015436D01*
X027344Y015471D01*
X027354Y015505D01*
X027367Y015538D01*
X027384Y015569D01*
X027405Y015597D01*
X027428Y015624D01*
X027455Y015647D01*
X027483Y015668D01*
X027514Y015685D01*
X027547Y015698D01*
X027581Y015708D01*
X027616Y015714D01*
X027651Y015716D01*
X027686Y015714D01*
X027721Y015708D01*
X027755Y015698D01*
X027788Y015685D01*
X027819Y015668D01*
X027847Y015647D01*
X027874Y015624D01*
X027897Y015597D01*
X027918Y015569D01*
X027935Y015538D01*
X027948Y015505D01*
X027958Y015471D01*
X027964Y015436D01*
X027966Y015401D01*
X027964Y015366D01*
X027958Y015331D01*
X027948Y015297D01*
X027935Y015264D01*
X027918Y015233D01*
X027897Y015205D01*
X027874Y015178D01*
X027847Y015155D01*
X027819Y015134D01*
X027788Y015117D01*
X027755Y015104D01*
X027721Y015094D01*
X027686Y015088D01*
X027651Y015086D01*
X027616Y015088D01*
X027581Y015094D01*
X027547Y015104D01*
X027514Y015117D01*
X027483Y015134D01*
X027455Y015155D01*
X027428Y015178D01*
X027405Y015205D01*
X027384Y015233D01*
X027367Y015264D01*
X027354Y015297D01*
X027344Y015331D01*
X027338Y015366D01*
X027336Y015401D01*
X027336Y009401D02*
X027338Y009436D01*
X027344Y009471D01*
X027354Y009505D01*
X027367Y009538D01*
X027384Y009569D01*
X027405Y009597D01*
X027428Y009624D01*
X027455Y009647D01*
X027483Y009668D01*
X027514Y009685D01*
X027547Y009698D01*
X027581Y009708D01*
X027616Y009714D01*
X027651Y009716D01*
X027686Y009714D01*
X027721Y009708D01*
X027755Y009698D01*
X027788Y009685D01*
X027819Y009668D01*
X027847Y009647D01*
X027874Y009624D01*
X027897Y009597D01*
X027918Y009569D01*
X027935Y009538D01*
X027948Y009505D01*
X027958Y009471D01*
X027964Y009436D01*
X027966Y009401D01*
X027964Y009366D01*
X027958Y009331D01*
X027948Y009297D01*
X027935Y009264D01*
X027918Y009233D01*
X027897Y009205D01*
X027874Y009178D01*
X027847Y009155D01*
X027819Y009134D01*
X027788Y009117D01*
X027755Y009104D01*
X027721Y009094D01*
X027686Y009088D01*
X027651Y009086D01*
X027616Y009088D01*
X027581Y009094D01*
X027547Y009104D01*
X027514Y009117D01*
X027483Y009134D01*
X027455Y009155D01*
X027428Y009178D01*
X027405Y009205D01*
X027384Y009233D01*
X027367Y009264D01*
X027354Y009297D01*
X027344Y009331D01*
X027338Y009366D01*
X027336Y009401D01*
X027336Y003401D02*
X027338Y003436D01*
X027344Y003471D01*
X027354Y003505D01*
X027367Y003538D01*
X027384Y003569D01*
X027405Y003597D01*
X027428Y003624D01*
X027455Y003647D01*
X027483Y003668D01*
X027514Y003685D01*
X027547Y003698D01*
X027581Y003708D01*
X027616Y003714D01*
X027651Y003716D01*
X027686Y003714D01*
X027721Y003708D01*
X027755Y003698D01*
X027788Y003685D01*
X027819Y003668D01*
X027847Y003647D01*
X027874Y003624D01*
X027897Y003597D01*
X027918Y003569D01*
X027935Y003538D01*
X027948Y003505D01*
X027958Y003471D01*
X027964Y003436D01*
X027966Y003401D01*
X027964Y003366D01*
X027958Y003331D01*
X027948Y003297D01*
X027935Y003264D01*
X027918Y003233D01*
X027897Y003205D01*
X027874Y003178D01*
X027847Y003155D01*
X027819Y003134D01*
X027788Y003117D01*
X027755Y003104D01*
X027721Y003094D01*
X027686Y003088D01*
X027651Y003086D01*
X027616Y003088D01*
X027581Y003094D01*
X027547Y003104D01*
X027514Y003117D01*
X027483Y003134D01*
X027455Y003155D01*
X027428Y003178D01*
X027405Y003205D01*
X027384Y003233D01*
X027367Y003264D01*
X027354Y003297D01*
X027344Y003331D01*
X027338Y003366D01*
X027336Y003401D01*
X021336Y003401D02*
X021338Y003436D01*
X021344Y003471D01*
X021354Y003505D01*
X021367Y003538D01*
X021384Y003569D01*
X021405Y003597D01*
X021428Y003624D01*
X021455Y003647D01*
X021483Y003668D01*
X021514Y003685D01*
X021547Y003698D01*
X021581Y003708D01*
X021616Y003714D01*
X021651Y003716D01*
X021686Y003714D01*
X021721Y003708D01*
X021755Y003698D01*
X021788Y003685D01*
X021819Y003668D01*
X021847Y003647D01*
X021874Y003624D01*
X021897Y003597D01*
X021918Y003569D01*
X021935Y003538D01*
X021948Y003505D01*
X021958Y003471D01*
X021964Y003436D01*
X021966Y003401D01*
X021964Y003366D01*
X021958Y003331D01*
X021948Y003297D01*
X021935Y003264D01*
X021918Y003233D01*
X021897Y003205D01*
X021874Y003178D01*
X021847Y003155D01*
X021819Y003134D01*
X021788Y003117D01*
X021755Y003104D01*
X021721Y003094D01*
X021686Y003088D01*
X021651Y003086D01*
X021616Y003088D01*
X021581Y003094D01*
X021547Y003104D01*
X021514Y003117D01*
X021483Y003134D01*
X021455Y003155D01*
X021428Y003178D01*
X021405Y003205D01*
X021384Y003233D01*
X021367Y003264D01*
X021354Y003297D01*
X021344Y003331D01*
X021338Y003366D01*
X021336Y003401D01*
X021336Y009401D02*
X021338Y009436D01*
X021344Y009471D01*
X021354Y009505D01*
X021367Y009538D01*
X021384Y009569D01*
X021405Y009597D01*
X021428Y009624D01*
X021455Y009647D01*
X021483Y009668D01*
X021514Y009685D01*
X021547Y009698D01*
X021581Y009708D01*
X021616Y009714D01*
X021651Y009716D01*
X021686Y009714D01*
X021721Y009708D01*
X021755Y009698D01*
X021788Y009685D01*
X021819Y009668D01*
X021847Y009647D01*
X021874Y009624D01*
X021897Y009597D01*
X021918Y009569D01*
X021935Y009538D01*
X021948Y009505D01*
X021958Y009471D01*
X021964Y009436D01*
X021966Y009401D01*
X021964Y009366D01*
X021958Y009331D01*
X021948Y009297D01*
X021935Y009264D01*
X021918Y009233D01*
X021897Y009205D01*
X021874Y009178D01*
X021847Y009155D01*
X021819Y009134D01*
X021788Y009117D01*
X021755Y009104D01*
X021721Y009094D01*
X021686Y009088D01*
X021651Y009086D01*
X021616Y009088D01*
X021581Y009094D01*
X021547Y009104D01*
X021514Y009117D01*
X021483Y009134D01*
X021455Y009155D01*
X021428Y009178D01*
X021405Y009205D01*
X021384Y009233D01*
X021367Y009264D01*
X021354Y009297D01*
X021344Y009331D01*
X021338Y009366D01*
X021336Y009401D01*
X021336Y015401D02*
X021338Y015436D01*
X021344Y015471D01*
X021354Y015505D01*
X021367Y015538D01*
X021384Y015569D01*
X021405Y015597D01*
X021428Y015624D01*
X021455Y015647D01*
X021483Y015668D01*
X021514Y015685D01*
X021547Y015698D01*
X021581Y015708D01*
X021616Y015714D01*
X021651Y015716D01*
X021686Y015714D01*
X021721Y015708D01*
X021755Y015698D01*
X021788Y015685D01*
X021819Y015668D01*
X021847Y015647D01*
X021874Y015624D01*
X021897Y015597D01*
X021918Y015569D01*
X021935Y015538D01*
X021948Y015505D01*
X021958Y015471D01*
X021964Y015436D01*
X021966Y015401D01*
X021964Y015366D01*
X021958Y015331D01*
X021948Y015297D01*
X021935Y015264D01*
X021918Y015233D01*
X021897Y015205D01*
X021874Y015178D01*
X021847Y015155D01*
X021819Y015134D01*
X021788Y015117D01*
X021755Y015104D01*
X021721Y015094D01*
X021686Y015088D01*
X021651Y015086D01*
X021616Y015088D01*
X021581Y015094D01*
X021547Y015104D01*
X021514Y015117D01*
X021483Y015134D01*
X021455Y015155D01*
X021428Y015178D01*
X021405Y015205D01*
X021384Y015233D01*
X021367Y015264D01*
X021354Y015297D01*
X021344Y015331D01*
X021338Y015366D01*
X021336Y015401D01*
X021336Y021401D02*
X021338Y021436D01*
X021344Y021471D01*
X021354Y021505D01*
X021367Y021538D01*
X021384Y021569D01*
X021405Y021597D01*
X021428Y021624D01*
X021455Y021647D01*
X021483Y021668D01*
X021514Y021685D01*
X021547Y021698D01*
X021581Y021708D01*
X021616Y021714D01*
X021651Y021716D01*
X021686Y021714D01*
X021721Y021708D01*
X021755Y021698D01*
X021788Y021685D01*
X021819Y021668D01*
X021847Y021647D01*
X021874Y021624D01*
X021897Y021597D01*
X021918Y021569D01*
X021935Y021538D01*
X021948Y021505D01*
X021958Y021471D01*
X021964Y021436D01*
X021966Y021401D01*
X021964Y021366D01*
X021958Y021331D01*
X021948Y021297D01*
X021935Y021264D01*
X021918Y021233D01*
X021897Y021205D01*
X021874Y021178D01*
X021847Y021155D01*
X021819Y021134D01*
X021788Y021117D01*
X021755Y021104D01*
X021721Y021094D01*
X021686Y021088D01*
X021651Y021086D01*
X021616Y021088D01*
X021581Y021094D01*
X021547Y021104D01*
X021514Y021117D01*
X021483Y021134D01*
X021455Y021155D01*
X021428Y021178D01*
X021405Y021205D01*
X021384Y021233D01*
X021367Y021264D01*
X021354Y021297D01*
X021344Y021331D01*
X021338Y021366D01*
X021336Y021401D01*
X021336Y027401D02*
X021338Y027436D01*
X021344Y027471D01*
X021354Y027505D01*
X021367Y027538D01*
X021384Y027569D01*
X021405Y027597D01*
X021428Y027624D01*
X021455Y027647D01*
X021483Y027668D01*
X021514Y027685D01*
X021547Y027698D01*
X021581Y027708D01*
X021616Y027714D01*
X021651Y027716D01*
X021686Y027714D01*
X021721Y027708D01*
X021755Y027698D01*
X021788Y027685D01*
X021819Y027668D01*
X021847Y027647D01*
X021874Y027624D01*
X021897Y027597D01*
X021918Y027569D01*
X021935Y027538D01*
X021948Y027505D01*
X021958Y027471D01*
X021964Y027436D01*
X021966Y027401D01*
X021964Y027366D01*
X021958Y027331D01*
X021948Y027297D01*
X021935Y027264D01*
X021918Y027233D01*
X021897Y027205D01*
X021874Y027178D01*
X021847Y027155D01*
X021819Y027134D01*
X021788Y027117D01*
X021755Y027104D01*
X021721Y027094D01*
X021686Y027088D01*
X021651Y027086D01*
X021616Y027088D01*
X021581Y027094D01*
X021547Y027104D01*
X021514Y027117D01*
X021483Y027134D01*
X021455Y027155D01*
X021428Y027178D01*
X021405Y027205D01*
X021384Y027233D01*
X021367Y027264D01*
X021354Y027297D01*
X021344Y027331D01*
X021338Y027366D01*
X021336Y027401D01*
X018836Y031651D02*
X018838Y031686D01*
X018844Y031721D01*
X018854Y031755D01*
X018867Y031788D01*
X018884Y031819D01*
X018905Y031847D01*
X018928Y031874D01*
X018955Y031897D01*
X018983Y031918D01*
X019014Y031935D01*
X019047Y031948D01*
X019081Y031958D01*
X019116Y031964D01*
X019151Y031966D01*
X019186Y031964D01*
X019221Y031958D01*
X019255Y031948D01*
X019288Y031935D01*
X019319Y031918D01*
X019347Y031897D01*
X019374Y031874D01*
X019397Y031847D01*
X019418Y031819D01*
X019435Y031788D01*
X019448Y031755D01*
X019458Y031721D01*
X019464Y031686D01*
X019466Y031651D01*
X019464Y031616D01*
X019458Y031581D01*
X019448Y031547D01*
X019435Y031514D01*
X019418Y031483D01*
X019397Y031455D01*
X019374Y031428D01*
X019347Y031405D01*
X019319Y031384D01*
X019288Y031367D01*
X019255Y031354D01*
X019221Y031344D01*
X019186Y031338D01*
X019151Y031336D01*
X019116Y031338D01*
X019081Y031344D01*
X019047Y031354D01*
X019014Y031367D01*
X018983Y031384D01*
X018955Y031405D01*
X018928Y031428D01*
X018905Y031455D01*
X018884Y031483D01*
X018867Y031514D01*
X018854Y031547D01*
X018844Y031581D01*
X018838Y031616D01*
X018836Y031651D01*
X015336Y031651D02*
X015338Y031686D01*
X015344Y031721D01*
X015354Y031755D01*
X015367Y031788D01*
X015384Y031819D01*
X015405Y031847D01*
X015428Y031874D01*
X015455Y031897D01*
X015483Y031918D01*
X015514Y031935D01*
X015547Y031948D01*
X015581Y031958D01*
X015616Y031964D01*
X015651Y031966D01*
X015686Y031964D01*
X015721Y031958D01*
X015755Y031948D01*
X015788Y031935D01*
X015819Y031918D01*
X015847Y031897D01*
X015874Y031874D01*
X015897Y031847D01*
X015918Y031819D01*
X015935Y031788D01*
X015948Y031755D01*
X015958Y031721D01*
X015964Y031686D01*
X015966Y031651D01*
X015964Y031616D01*
X015958Y031581D01*
X015948Y031547D01*
X015935Y031514D01*
X015918Y031483D01*
X015897Y031455D01*
X015874Y031428D01*
X015847Y031405D01*
X015819Y031384D01*
X015788Y031367D01*
X015755Y031354D01*
X015721Y031344D01*
X015686Y031338D01*
X015651Y031336D01*
X015616Y031338D01*
X015581Y031344D01*
X015547Y031354D01*
X015514Y031367D01*
X015483Y031384D01*
X015455Y031405D01*
X015428Y031428D01*
X015405Y031455D01*
X015384Y031483D01*
X015367Y031514D01*
X015354Y031547D01*
X015344Y031581D01*
X015338Y031616D01*
X015336Y031651D01*
X011836Y031651D02*
X011838Y031686D01*
X011844Y031721D01*
X011854Y031755D01*
X011867Y031788D01*
X011884Y031819D01*
X011905Y031847D01*
X011928Y031874D01*
X011955Y031897D01*
X011983Y031918D01*
X012014Y031935D01*
X012047Y031948D01*
X012081Y031958D01*
X012116Y031964D01*
X012151Y031966D01*
X012186Y031964D01*
X012221Y031958D01*
X012255Y031948D01*
X012288Y031935D01*
X012319Y031918D01*
X012347Y031897D01*
X012374Y031874D01*
X012397Y031847D01*
X012418Y031819D01*
X012435Y031788D01*
X012448Y031755D01*
X012458Y031721D01*
X012464Y031686D01*
X012466Y031651D01*
X012464Y031616D01*
X012458Y031581D01*
X012448Y031547D01*
X012435Y031514D01*
X012418Y031483D01*
X012397Y031455D01*
X012374Y031428D01*
X012347Y031405D01*
X012319Y031384D01*
X012288Y031367D01*
X012255Y031354D01*
X012221Y031344D01*
X012186Y031338D01*
X012151Y031336D01*
X012116Y031338D01*
X012081Y031344D01*
X012047Y031354D01*
X012014Y031367D01*
X011983Y031384D01*
X011955Y031405D01*
X011928Y031428D01*
X011905Y031455D01*
X011884Y031483D01*
X011867Y031514D01*
X011854Y031547D01*
X011844Y031581D01*
X011838Y031616D01*
X011836Y031651D01*
X008336Y031651D02*
X008338Y031686D01*
X008344Y031721D01*
X008354Y031755D01*
X008367Y031788D01*
X008384Y031819D01*
X008405Y031847D01*
X008428Y031874D01*
X008455Y031897D01*
X008483Y031918D01*
X008514Y031935D01*
X008547Y031948D01*
X008581Y031958D01*
X008616Y031964D01*
X008651Y031966D01*
X008686Y031964D01*
X008721Y031958D01*
X008755Y031948D01*
X008788Y031935D01*
X008819Y031918D01*
X008847Y031897D01*
X008874Y031874D01*
X008897Y031847D01*
X008918Y031819D01*
X008935Y031788D01*
X008948Y031755D01*
X008958Y031721D01*
X008964Y031686D01*
X008966Y031651D01*
X008964Y031616D01*
X008958Y031581D01*
X008948Y031547D01*
X008935Y031514D01*
X008918Y031483D01*
X008897Y031455D01*
X008874Y031428D01*
X008847Y031405D01*
X008819Y031384D01*
X008788Y031367D01*
X008755Y031354D01*
X008721Y031344D01*
X008686Y031338D01*
X008651Y031336D01*
X008616Y031338D01*
X008581Y031344D01*
X008547Y031354D01*
X008514Y031367D01*
X008483Y031384D01*
X008455Y031405D01*
X008428Y031428D01*
X008405Y031455D01*
X008384Y031483D01*
X008367Y031514D01*
X008354Y031547D01*
X008344Y031581D01*
X008338Y031616D01*
X008336Y031651D01*
X004836Y031651D02*
X004838Y031686D01*
X004844Y031721D01*
X004854Y031755D01*
X004867Y031788D01*
X004884Y031819D01*
X004905Y031847D01*
X004928Y031874D01*
X004955Y031897D01*
X004983Y031918D01*
X005014Y031935D01*
X005047Y031948D01*
X005081Y031958D01*
X005116Y031964D01*
X005151Y031966D01*
X005186Y031964D01*
X005221Y031958D01*
X005255Y031948D01*
X005288Y031935D01*
X005319Y031918D01*
X005347Y031897D01*
X005374Y031874D01*
X005397Y031847D01*
X005418Y031819D01*
X005435Y031788D01*
X005448Y031755D01*
X005458Y031721D01*
X005464Y031686D01*
X005466Y031651D01*
X005464Y031616D01*
X005458Y031581D01*
X005448Y031547D01*
X005435Y031514D01*
X005418Y031483D01*
X005397Y031455D01*
X005374Y031428D01*
X005347Y031405D01*
X005319Y031384D01*
X005288Y031367D01*
X005255Y031354D01*
X005221Y031344D01*
X005186Y031338D01*
X005151Y031336D01*
X005116Y031338D01*
X005081Y031344D01*
X005047Y031354D01*
X005014Y031367D01*
X004983Y031384D01*
X004955Y031405D01*
X004928Y031428D01*
X004905Y031455D01*
X004884Y031483D01*
X004867Y031514D01*
X004854Y031547D01*
X004844Y031581D01*
X004838Y031616D01*
X004836Y031651D01*
X001336Y031651D02*
X001338Y031686D01*
X001344Y031721D01*
X001354Y031755D01*
X001367Y031788D01*
X001384Y031819D01*
X001405Y031847D01*
X001428Y031874D01*
X001455Y031897D01*
X001483Y031918D01*
X001514Y031935D01*
X001547Y031948D01*
X001581Y031958D01*
X001616Y031964D01*
X001651Y031966D01*
X001686Y031964D01*
X001721Y031958D01*
X001755Y031948D01*
X001788Y031935D01*
X001819Y031918D01*
X001847Y031897D01*
X001874Y031874D01*
X001897Y031847D01*
X001918Y031819D01*
X001935Y031788D01*
X001948Y031755D01*
X001958Y031721D01*
X001964Y031686D01*
X001966Y031651D01*
X001964Y031616D01*
X001958Y031581D01*
X001948Y031547D01*
X001935Y031514D01*
X001918Y031483D01*
X001897Y031455D01*
X001874Y031428D01*
X001847Y031405D01*
X001819Y031384D01*
X001788Y031367D01*
X001755Y031354D01*
X001721Y031344D01*
X001686Y031338D01*
X001651Y031336D01*
X001616Y031338D01*
X001581Y031344D01*
X001547Y031354D01*
X001514Y031367D01*
X001483Y031384D01*
X001455Y031405D01*
X001428Y031428D01*
X001405Y031455D01*
X001384Y031483D01*
X001367Y031514D01*
X001354Y031547D01*
X001344Y031581D01*
X001338Y031616D01*
X001336Y031651D01*
X003336Y027401D02*
X003338Y027436D01*
X003344Y027471D01*
X003354Y027505D01*
X003367Y027538D01*
X003384Y027569D01*
X003405Y027597D01*
X003428Y027624D01*
X003455Y027647D01*
X003483Y027668D01*
X003514Y027685D01*
X003547Y027698D01*
X003581Y027708D01*
X003616Y027714D01*
X003651Y027716D01*
X003686Y027714D01*
X003721Y027708D01*
X003755Y027698D01*
X003788Y027685D01*
X003819Y027668D01*
X003847Y027647D01*
X003874Y027624D01*
X003897Y027597D01*
X003918Y027569D01*
X003935Y027538D01*
X003948Y027505D01*
X003958Y027471D01*
X003964Y027436D01*
X003966Y027401D01*
X003964Y027366D01*
X003958Y027331D01*
X003948Y027297D01*
X003935Y027264D01*
X003918Y027233D01*
X003897Y027205D01*
X003874Y027178D01*
X003847Y027155D01*
X003819Y027134D01*
X003788Y027117D01*
X003755Y027104D01*
X003721Y027094D01*
X003686Y027088D01*
X003651Y027086D01*
X003616Y027088D01*
X003581Y027094D01*
X003547Y027104D01*
X003514Y027117D01*
X003483Y027134D01*
X003455Y027155D01*
X003428Y027178D01*
X003405Y027205D01*
X003384Y027233D01*
X003367Y027264D01*
X003354Y027297D01*
X003344Y027331D01*
X003338Y027366D01*
X003336Y027401D01*
X003336Y021401D02*
X003338Y021436D01*
X003344Y021471D01*
X003354Y021505D01*
X003367Y021538D01*
X003384Y021569D01*
X003405Y021597D01*
X003428Y021624D01*
X003455Y021647D01*
X003483Y021668D01*
X003514Y021685D01*
X003547Y021698D01*
X003581Y021708D01*
X003616Y021714D01*
X003651Y021716D01*
X003686Y021714D01*
X003721Y021708D01*
X003755Y021698D01*
X003788Y021685D01*
X003819Y021668D01*
X003847Y021647D01*
X003874Y021624D01*
X003897Y021597D01*
X003918Y021569D01*
X003935Y021538D01*
X003948Y021505D01*
X003958Y021471D01*
X003964Y021436D01*
X003966Y021401D01*
X003964Y021366D01*
X003958Y021331D01*
X003948Y021297D01*
X003935Y021264D01*
X003918Y021233D01*
X003897Y021205D01*
X003874Y021178D01*
X003847Y021155D01*
X003819Y021134D01*
X003788Y021117D01*
X003755Y021104D01*
X003721Y021094D01*
X003686Y021088D01*
X003651Y021086D01*
X003616Y021088D01*
X003581Y021094D01*
X003547Y021104D01*
X003514Y021117D01*
X003483Y021134D01*
X003455Y021155D01*
X003428Y021178D01*
X003405Y021205D01*
X003384Y021233D01*
X003367Y021264D01*
X003354Y021297D01*
X003344Y021331D01*
X003338Y021366D01*
X003336Y021401D01*
X003336Y015401D02*
X003338Y015436D01*
X003344Y015471D01*
X003354Y015505D01*
X003367Y015538D01*
X003384Y015569D01*
X003405Y015597D01*
X003428Y015624D01*
X003455Y015647D01*
X003483Y015668D01*
X003514Y015685D01*
X003547Y015698D01*
X003581Y015708D01*
X003616Y015714D01*
X003651Y015716D01*
X003686Y015714D01*
X003721Y015708D01*
X003755Y015698D01*
X003788Y015685D01*
X003819Y015668D01*
X003847Y015647D01*
X003874Y015624D01*
X003897Y015597D01*
X003918Y015569D01*
X003935Y015538D01*
X003948Y015505D01*
X003958Y015471D01*
X003964Y015436D01*
X003966Y015401D01*
X003964Y015366D01*
X003958Y015331D01*
X003948Y015297D01*
X003935Y015264D01*
X003918Y015233D01*
X003897Y015205D01*
X003874Y015178D01*
X003847Y015155D01*
X003819Y015134D01*
X003788Y015117D01*
X003755Y015104D01*
X003721Y015094D01*
X003686Y015088D01*
X003651Y015086D01*
X003616Y015088D01*
X003581Y015094D01*
X003547Y015104D01*
X003514Y015117D01*
X003483Y015134D01*
X003455Y015155D01*
X003428Y015178D01*
X003405Y015205D01*
X003384Y015233D01*
X003367Y015264D01*
X003354Y015297D01*
X003344Y015331D01*
X003338Y015366D01*
X003336Y015401D01*
X003336Y009401D02*
X003338Y009436D01*
X003344Y009471D01*
X003354Y009505D01*
X003367Y009538D01*
X003384Y009569D01*
X003405Y009597D01*
X003428Y009624D01*
X003455Y009647D01*
X003483Y009668D01*
X003514Y009685D01*
X003547Y009698D01*
X003581Y009708D01*
X003616Y009714D01*
X003651Y009716D01*
X003686Y009714D01*
X003721Y009708D01*
X003755Y009698D01*
X003788Y009685D01*
X003819Y009668D01*
X003847Y009647D01*
X003874Y009624D01*
X003897Y009597D01*
X003918Y009569D01*
X003935Y009538D01*
X003948Y009505D01*
X003958Y009471D01*
X003964Y009436D01*
X003966Y009401D01*
X003964Y009366D01*
X003958Y009331D01*
X003948Y009297D01*
X003935Y009264D01*
X003918Y009233D01*
X003897Y009205D01*
X003874Y009178D01*
X003847Y009155D01*
X003819Y009134D01*
X003788Y009117D01*
X003755Y009104D01*
X003721Y009094D01*
X003686Y009088D01*
X003651Y009086D01*
X003616Y009088D01*
X003581Y009094D01*
X003547Y009104D01*
X003514Y009117D01*
X003483Y009134D01*
X003455Y009155D01*
X003428Y009178D01*
X003405Y009205D01*
X003384Y009233D01*
X003367Y009264D01*
X003354Y009297D01*
X003344Y009331D01*
X003338Y009366D01*
X003336Y009401D01*
X003336Y003401D02*
X003338Y003436D01*
X003344Y003471D01*
X003354Y003505D01*
X003367Y003538D01*
X003384Y003569D01*
X003405Y003597D01*
X003428Y003624D01*
X003455Y003647D01*
X003483Y003668D01*
X003514Y003685D01*
X003547Y003698D01*
X003581Y003708D01*
X003616Y003714D01*
X003651Y003716D01*
X003686Y003714D01*
X003721Y003708D01*
X003755Y003698D01*
X003788Y003685D01*
X003819Y003668D01*
X003847Y003647D01*
X003874Y003624D01*
X003897Y003597D01*
X003918Y003569D01*
X003935Y003538D01*
X003948Y003505D01*
X003958Y003471D01*
X003964Y003436D01*
X003966Y003401D01*
X003964Y003366D01*
X003958Y003331D01*
X003948Y003297D01*
X003935Y003264D01*
X003918Y003233D01*
X003897Y003205D01*
X003874Y003178D01*
X003847Y003155D01*
X003819Y003134D01*
X003788Y003117D01*
X003755Y003104D01*
X003721Y003094D01*
X003686Y003088D01*
X003651Y003086D01*
X003616Y003088D01*
X003581Y003094D01*
X003547Y003104D01*
X003514Y003117D01*
X003483Y003134D01*
X003455Y003155D01*
X003428Y003178D01*
X003405Y003205D01*
X003384Y003233D01*
X003367Y003264D01*
X003354Y003297D01*
X003344Y003331D01*
X003338Y003366D01*
X003336Y003401D01*
X009336Y003401D02*
X009338Y003436D01*
X009344Y003471D01*
X009354Y003505D01*
X009367Y003538D01*
X009384Y003569D01*
X009405Y003597D01*
X009428Y003624D01*
X009455Y003647D01*
X009483Y003668D01*
X009514Y003685D01*
X009547Y003698D01*
X009581Y003708D01*
X009616Y003714D01*
X009651Y003716D01*
X009686Y003714D01*
X009721Y003708D01*
X009755Y003698D01*
X009788Y003685D01*
X009819Y003668D01*
X009847Y003647D01*
X009874Y003624D01*
X009897Y003597D01*
X009918Y003569D01*
X009935Y003538D01*
X009948Y003505D01*
X009958Y003471D01*
X009964Y003436D01*
X009966Y003401D01*
X009964Y003366D01*
X009958Y003331D01*
X009948Y003297D01*
X009935Y003264D01*
X009918Y003233D01*
X009897Y003205D01*
X009874Y003178D01*
X009847Y003155D01*
X009819Y003134D01*
X009788Y003117D01*
X009755Y003104D01*
X009721Y003094D01*
X009686Y003088D01*
X009651Y003086D01*
X009616Y003088D01*
X009581Y003094D01*
X009547Y003104D01*
X009514Y003117D01*
X009483Y003134D01*
X009455Y003155D01*
X009428Y003178D01*
X009405Y003205D01*
X009384Y003233D01*
X009367Y003264D01*
X009354Y003297D01*
X009344Y003331D01*
X009338Y003366D01*
X009336Y003401D01*
X009336Y009401D02*
X009338Y009436D01*
X009344Y009471D01*
X009354Y009505D01*
X009367Y009538D01*
X009384Y009569D01*
X009405Y009597D01*
X009428Y009624D01*
X009455Y009647D01*
X009483Y009668D01*
X009514Y009685D01*
X009547Y009698D01*
X009581Y009708D01*
X009616Y009714D01*
X009651Y009716D01*
X009686Y009714D01*
X009721Y009708D01*
X009755Y009698D01*
X009788Y009685D01*
X009819Y009668D01*
X009847Y009647D01*
X009874Y009624D01*
X009897Y009597D01*
X009918Y009569D01*
X009935Y009538D01*
X009948Y009505D01*
X009958Y009471D01*
X009964Y009436D01*
X009966Y009401D01*
X009964Y009366D01*
X009958Y009331D01*
X009948Y009297D01*
X009935Y009264D01*
X009918Y009233D01*
X009897Y009205D01*
X009874Y009178D01*
X009847Y009155D01*
X009819Y009134D01*
X009788Y009117D01*
X009755Y009104D01*
X009721Y009094D01*
X009686Y009088D01*
X009651Y009086D01*
X009616Y009088D01*
X009581Y009094D01*
X009547Y009104D01*
X009514Y009117D01*
X009483Y009134D01*
X009455Y009155D01*
X009428Y009178D01*
X009405Y009205D01*
X009384Y009233D01*
X009367Y009264D01*
X009354Y009297D01*
X009344Y009331D01*
X009338Y009366D01*
X009336Y009401D01*
X009336Y015401D02*
X009338Y015436D01*
X009344Y015471D01*
X009354Y015505D01*
X009367Y015538D01*
X009384Y015569D01*
X009405Y015597D01*
X009428Y015624D01*
X009455Y015647D01*
X009483Y015668D01*
X009514Y015685D01*
X009547Y015698D01*
X009581Y015708D01*
X009616Y015714D01*
X009651Y015716D01*
X009686Y015714D01*
X009721Y015708D01*
X009755Y015698D01*
X009788Y015685D01*
X009819Y015668D01*
X009847Y015647D01*
X009874Y015624D01*
X009897Y015597D01*
X009918Y015569D01*
X009935Y015538D01*
X009948Y015505D01*
X009958Y015471D01*
X009964Y015436D01*
X009966Y015401D01*
X009964Y015366D01*
X009958Y015331D01*
X009948Y015297D01*
X009935Y015264D01*
X009918Y015233D01*
X009897Y015205D01*
X009874Y015178D01*
X009847Y015155D01*
X009819Y015134D01*
X009788Y015117D01*
X009755Y015104D01*
X009721Y015094D01*
X009686Y015088D01*
X009651Y015086D01*
X009616Y015088D01*
X009581Y015094D01*
X009547Y015104D01*
X009514Y015117D01*
X009483Y015134D01*
X009455Y015155D01*
X009428Y015178D01*
X009405Y015205D01*
X009384Y015233D01*
X009367Y015264D01*
X009354Y015297D01*
X009344Y015331D01*
X009338Y015366D01*
X009336Y015401D01*
X009336Y021401D02*
X009338Y021436D01*
X009344Y021471D01*
X009354Y021505D01*
X009367Y021538D01*
X009384Y021569D01*
X009405Y021597D01*
X009428Y021624D01*
X009455Y021647D01*
X009483Y021668D01*
X009514Y021685D01*
X009547Y021698D01*
X009581Y021708D01*
X009616Y021714D01*
X009651Y021716D01*
X009686Y021714D01*
X009721Y021708D01*
X009755Y021698D01*
X009788Y021685D01*
X009819Y021668D01*
X009847Y021647D01*
X009874Y021624D01*
X009897Y021597D01*
X009918Y021569D01*
X009935Y021538D01*
X009948Y021505D01*
X009958Y021471D01*
X009964Y021436D01*
X009966Y021401D01*
X009964Y021366D01*
X009958Y021331D01*
X009948Y021297D01*
X009935Y021264D01*
X009918Y021233D01*
X009897Y021205D01*
X009874Y021178D01*
X009847Y021155D01*
X009819Y021134D01*
X009788Y021117D01*
X009755Y021104D01*
X009721Y021094D01*
X009686Y021088D01*
X009651Y021086D01*
X009616Y021088D01*
X009581Y021094D01*
X009547Y021104D01*
X009514Y021117D01*
X009483Y021134D01*
X009455Y021155D01*
X009428Y021178D01*
X009405Y021205D01*
X009384Y021233D01*
X009367Y021264D01*
X009354Y021297D01*
X009344Y021331D01*
X009338Y021366D01*
X009336Y021401D01*
X009336Y027401D02*
X009338Y027436D01*
X009344Y027471D01*
X009354Y027505D01*
X009367Y027538D01*
X009384Y027569D01*
X009405Y027597D01*
X009428Y027624D01*
X009455Y027647D01*
X009483Y027668D01*
X009514Y027685D01*
X009547Y027698D01*
X009581Y027708D01*
X009616Y027714D01*
X009651Y027716D01*
X009686Y027714D01*
X009721Y027708D01*
X009755Y027698D01*
X009788Y027685D01*
X009819Y027668D01*
X009847Y027647D01*
X009874Y027624D01*
X009897Y027597D01*
X009918Y027569D01*
X009935Y027538D01*
X009948Y027505D01*
X009958Y027471D01*
X009964Y027436D01*
X009966Y027401D01*
X009964Y027366D01*
X009958Y027331D01*
X009948Y027297D01*
X009935Y027264D01*
X009918Y027233D01*
X009897Y027205D01*
X009874Y027178D01*
X009847Y027155D01*
X009819Y027134D01*
X009788Y027117D01*
X009755Y027104D01*
X009721Y027094D01*
X009686Y027088D01*
X009651Y027086D01*
X009616Y027088D01*
X009581Y027094D01*
X009547Y027104D01*
X009514Y027117D01*
X009483Y027134D01*
X009455Y027155D01*
X009428Y027178D01*
X009405Y027205D01*
X009384Y027233D01*
X009367Y027264D01*
X009354Y027297D01*
X009344Y027331D01*
X009338Y027366D01*
X009336Y027401D01*
X015336Y027401D02*
X015338Y027436D01*
X015344Y027471D01*
X015354Y027505D01*
X015367Y027538D01*
X015384Y027569D01*
X015405Y027597D01*
X015428Y027624D01*
X015455Y027647D01*
X015483Y027668D01*
X015514Y027685D01*
X015547Y027698D01*
X015581Y027708D01*
X015616Y027714D01*
X015651Y027716D01*
X015686Y027714D01*
X015721Y027708D01*
X015755Y027698D01*
X015788Y027685D01*
X015819Y027668D01*
X015847Y027647D01*
X015874Y027624D01*
X015897Y027597D01*
X015918Y027569D01*
X015935Y027538D01*
X015948Y027505D01*
X015958Y027471D01*
X015964Y027436D01*
X015966Y027401D01*
X015964Y027366D01*
X015958Y027331D01*
X015948Y027297D01*
X015935Y027264D01*
X015918Y027233D01*
X015897Y027205D01*
X015874Y027178D01*
X015847Y027155D01*
X015819Y027134D01*
X015788Y027117D01*
X015755Y027104D01*
X015721Y027094D01*
X015686Y027088D01*
X015651Y027086D01*
X015616Y027088D01*
X015581Y027094D01*
X015547Y027104D01*
X015514Y027117D01*
X015483Y027134D01*
X015455Y027155D01*
X015428Y027178D01*
X015405Y027205D01*
X015384Y027233D01*
X015367Y027264D01*
X015354Y027297D01*
X015344Y027331D01*
X015338Y027366D01*
X015336Y027401D01*
X015336Y021401D02*
X015338Y021436D01*
X015344Y021471D01*
X015354Y021505D01*
X015367Y021538D01*
X015384Y021569D01*
X015405Y021597D01*
X015428Y021624D01*
X015455Y021647D01*
X015483Y021668D01*
X015514Y021685D01*
X015547Y021698D01*
X015581Y021708D01*
X015616Y021714D01*
X015651Y021716D01*
X015686Y021714D01*
X015721Y021708D01*
X015755Y021698D01*
X015788Y021685D01*
X015819Y021668D01*
X015847Y021647D01*
X015874Y021624D01*
X015897Y021597D01*
X015918Y021569D01*
X015935Y021538D01*
X015948Y021505D01*
X015958Y021471D01*
X015964Y021436D01*
X015966Y021401D01*
X015964Y021366D01*
X015958Y021331D01*
X015948Y021297D01*
X015935Y021264D01*
X015918Y021233D01*
X015897Y021205D01*
X015874Y021178D01*
X015847Y021155D01*
X015819Y021134D01*
X015788Y021117D01*
X015755Y021104D01*
X015721Y021094D01*
X015686Y021088D01*
X015651Y021086D01*
X015616Y021088D01*
X015581Y021094D01*
X015547Y021104D01*
X015514Y021117D01*
X015483Y021134D01*
X015455Y021155D01*
X015428Y021178D01*
X015405Y021205D01*
X015384Y021233D01*
X015367Y021264D01*
X015354Y021297D01*
X015344Y021331D01*
X015338Y021366D01*
X015336Y021401D01*
X015336Y015401D02*
X015338Y015436D01*
X015344Y015471D01*
X015354Y015505D01*
X015367Y015538D01*
X015384Y015569D01*
X015405Y015597D01*
X015428Y015624D01*
X015455Y015647D01*
X015483Y015668D01*
X015514Y015685D01*
X015547Y015698D01*
X015581Y015708D01*
X015616Y015714D01*
X015651Y015716D01*
X015686Y015714D01*
X015721Y015708D01*
X015755Y015698D01*
X015788Y015685D01*
X015819Y015668D01*
X015847Y015647D01*
X015874Y015624D01*
X015897Y015597D01*
X015918Y015569D01*
X015935Y015538D01*
X015948Y015505D01*
X015958Y015471D01*
X015964Y015436D01*
X015966Y015401D01*
X015964Y015366D01*
X015958Y015331D01*
X015948Y015297D01*
X015935Y015264D01*
X015918Y015233D01*
X015897Y015205D01*
X015874Y015178D01*
X015847Y015155D01*
X015819Y015134D01*
X015788Y015117D01*
X015755Y015104D01*
X015721Y015094D01*
X015686Y015088D01*
X015651Y015086D01*
X015616Y015088D01*
X015581Y015094D01*
X015547Y015104D01*
X015514Y015117D01*
X015483Y015134D01*
X015455Y015155D01*
X015428Y015178D01*
X015405Y015205D01*
X015384Y015233D01*
X015367Y015264D01*
X015354Y015297D01*
X015344Y015331D01*
X015338Y015366D01*
X015336Y015401D01*
X015336Y009401D02*
X015338Y009436D01*
X015344Y009471D01*
X015354Y009505D01*
X015367Y009538D01*
X015384Y009569D01*
X015405Y009597D01*
X015428Y009624D01*
X015455Y009647D01*
X015483Y009668D01*
X015514Y009685D01*
X015547Y009698D01*
X015581Y009708D01*
X015616Y009714D01*
X015651Y009716D01*
X015686Y009714D01*
X015721Y009708D01*
X015755Y009698D01*
X015788Y009685D01*
X015819Y009668D01*
X015847Y009647D01*
X015874Y009624D01*
X015897Y009597D01*
X015918Y009569D01*
X015935Y009538D01*
X015948Y009505D01*
X015958Y009471D01*
X015964Y009436D01*
X015966Y009401D01*
X015964Y009366D01*
X015958Y009331D01*
X015948Y009297D01*
X015935Y009264D01*
X015918Y009233D01*
X015897Y009205D01*
X015874Y009178D01*
X015847Y009155D01*
X015819Y009134D01*
X015788Y009117D01*
X015755Y009104D01*
X015721Y009094D01*
X015686Y009088D01*
X015651Y009086D01*
X015616Y009088D01*
X015581Y009094D01*
X015547Y009104D01*
X015514Y009117D01*
X015483Y009134D01*
X015455Y009155D01*
X015428Y009178D01*
X015405Y009205D01*
X015384Y009233D01*
X015367Y009264D01*
X015354Y009297D01*
X015344Y009331D01*
X015338Y009366D01*
X015336Y009401D01*
X015336Y003401D02*
X015338Y003436D01*
X015344Y003471D01*
X015354Y003505D01*
X015367Y003538D01*
X015384Y003569D01*
X015405Y003597D01*
X015428Y003624D01*
X015455Y003647D01*
X015483Y003668D01*
X015514Y003685D01*
X015547Y003698D01*
X015581Y003708D01*
X015616Y003714D01*
X015651Y003716D01*
X015686Y003714D01*
X015721Y003708D01*
X015755Y003698D01*
X015788Y003685D01*
X015819Y003668D01*
X015847Y003647D01*
X015874Y003624D01*
X015897Y003597D01*
X015918Y003569D01*
X015935Y003538D01*
X015948Y003505D01*
X015958Y003471D01*
X015964Y003436D01*
X015966Y003401D01*
X015964Y003366D01*
X015958Y003331D01*
X015948Y003297D01*
X015935Y003264D01*
X015918Y003233D01*
X015897Y003205D01*
X015874Y003178D01*
X015847Y003155D01*
X015819Y003134D01*
X015788Y003117D01*
X015755Y003104D01*
X015721Y003094D01*
X015686Y003088D01*
X015651Y003086D01*
X015616Y003088D01*
X015581Y003094D01*
X015547Y003104D01*
X015514Y003117D01*
X015483Y003134D01*
X015455Y003155D01*
X015428Y003178D01*
X015405Y003205D01*
X015384Y003233D01*
X015367Y003264D01*
X015354Y003297D01*
X015344Y003331D01*
X015338Y003366D01*
X015336Y003401D01*
X015336Y036401D02*
X015338Y036436D01*
X015344Y036471D01*
X015354Y036505D01*
X015367Y036538D01*
X015384Y036569D01*
X015405Y036597D01*
X015428Y036624D01*
X015455Y036647D01*
X015483Y036668D01*
X015514Y036685D01*
X015547Y036698D01*
X015581Y036708D01*
X015616Y036714D01*
X015651Y036716D01*
X015686Y036714D01*
X015721Y036708D01*
X015755Y036698D01*
X015788Y036685D01*
X015819Y036668D01*
X015847Y036647D01*
X015874Y036624D01*
X015897Y036597D01*
X015918Y036569D01*
X015935Y036538D01*
X015948Y036505D01*
X015958Y036471D01*
X015964Y036436D01*
X015966Y036401D01*
X015964Y036366D01*
X015958Y036331D01*
X015948Y036297D01*
X015935Y036264D01*
X015918Y036233D01*
X015897Y036205D01*
X015874Y036178D01*
X015847Y036155D01*
X015819Y036134D01*
X015788Y036117D01*
X015755Y036104D01*
X015721Y036094D01*
X015686Y036088D01*
X015651Y036086D01*
X015616Y036088D01*
X015581Y036094D01*
X015547Y036104D01*
X015514Y036117D01*
X015483Y036134D01*
X015455Y036155D01*
X015428Y036178D01*
X015405Y036205D01*
X015384Y036233D01*
X015367Y036264D01*
X015354Y036297D01*
X015344Y036331D01*
X015338Y036366D01*
X015336Y036401D01*
X009336Y036401D02*
X009338Y036436D01*
X009344Y036471D01*
X009354Y036505D01*
X009367Y036538D01*
X009384Y036569D01*
X009405Y036597D01*
X009428Y036624D01*
X009455Y036647D01*
X009483Y036668D01*
X009514Y036685D01*
X009547Y036698D01*
X009581Y036708D01*
X009616Y036714D01*
X009651Y036716D01*
X009686Y036714D01*
X009721Y036708D01*
X009755Y036698D01*
X009788Y036685D01*
X009819Y036668D01*
X009847Y036647D01*
X009874Y036624D01*
X009897Y036597D01*
X009918Y036569D01*
X009935Y036538D01*
X009948Y036505D01*
X009958Y036471D01*
X009964Y036436D01*
X009966Y036401D01*
X009964Y036366D01*
X009958Y036331D01*
X009948Y036297D01*
X009935Y036264D01*
X009918Y036233D01*
X009897Y036205D01*
X009874Y036178D01*
X009847Y036155D01*
X009819Y036134D01*
X009788Y036117D01*
X009755Y036104D01*
X009721Y036094D01*
X009686Y036088D01*
X009651Y036086D01*
X009616Y036088D01*
X009581Y036094D01*
X009547Y036104D01*
X009514Y036117D01*
X009483Y036134D01*
X009455Y036155D01*
X009428Y036178D01*
X009405Y036205D01*
X009384Y036233D01*
X009367Y036264D01*
X009354Y036297D01*
X009344Y036331D01*
X009338Y036366D01*
X009336Y036401D01*
X003336Y036401D02*
X003338Y036436D01*
X003344Y036471D01*
X003354Y036505D01*
X003367Y036538D01*
X003384Y036569D01*
X003405Y036597D01*
X003428Y036624D01*
X003455Y036647D01*
X003483Y036668D01*
X003514Y036685D01*
X003547Y036698D01*
X003581Y036708D01*
X003616Y036714D01*
X003651Y036716D01*
X003686Y036714D01*
X003721Y036708D01*
X003755Y036698D01*
X003788Y036685D01*
X003819Y036668D01*
X003847Y036647D01*
X003874Y036624D01*
X003897Y036597D01*
X003918Y036569D01*
X003935Y036538D01*
X003948Y036505D01*
X003958Y036471D01*
X003964Y036436D01*
X003966Y036401D01*
X003964Y036366D01*
X003958Y036331D01*
X003948Y036297D01*
X003935Y036264D01*
X003918Y036233D01*
X003897Y036205D01*
X003874Y036178D01*
X003847Y036155D01*
X003819Y036134D01*
X003788Y036117D01*
X003755Y036104D01*
X003721Y036094D01*
X003686Y036088D01*
X003651Y036086D01*
X003616Y036088D01*
X003581Y036094D01*
X003547Y036104D01*
X003514Y036117D01*
X003483Y036134D01*
X003455Y036155D01*
X003428Y036178D01*
X003405Y036205D01*
X003384Y036233D01*
X003367Y036264D01*
X003354Y036297D01*
X003344Y036331D01*
X003338Y036366D01*
X003336Y036401D01*
D14*
X003651Y036401D03*
X005151Y031651D03*
X001651Y031651D03*
X003651Y027401D03*
X003651Y021401D03*
X003651Y015401D03*
X003651Y009401D03*
X003651Y003401D03*
X009651Y003401D03*
X009651Y009401D03*
X009651Y015401D03*
X009651Y021401D03*
X009651Y027401D03*
X008651Y031651D03*
X012151Y031651D03*
X015651Y031651D03*
X019151Y031651D03*
X021651Y027401D03*
X021651Y021401D03*
X021651Y015401D03*
X021651Y009401D03*
X021651Y003401D03*
X015651Y003401D03*
X015651Y009401D03*
X015651Y015401D03*
X015651Y021401D03*
X015651Y027401D03*
X015651Y036401D03*
X009651Y036401D03*
X027651Y027401D03*
X027651Y021401D03*
X027651Y015401D03*
X027651Y009401D03*
X027651Y003401D03*
D15*
X026547Y034301D03*
X026547Y034901D03*
D16*
X026547Y034601D03*
D17*
X025425Y034851D03*
X024677Y034851D03*
X024677Y034051D03*
X025425Y034051D03*
X022025Y032601D03*
X022025Y031701D03*
X021277Y031701D03*
X021277Y032601D03*
X020498Y028149D03*
X019750Y028149D03*
X014498Y028149D03*
X013750Y028149D03*
X008498Y028149D03*
X007750Y028149D03*
X002580Y028211D03*
X001832Y028211D03*
X001851Y022211D03*
X002599Y022211D03*
X007828Y022149D03*
X008576Y022149D03*
X013828Y022149D03*
X014576Y022149D03*
X019789Y022149D03*
X020537Y022149D03*
X025710Y028149D03*
X026458Y028149D03*
X026563Y022149D03*
X025815Y022149D03*
D18*
X025751Y024077D03*
X025751Y024825D03*
X024651Y024825D03*
X024651Y024077D03*
X023451Y024077D03*
X023451Y024825D03*
X029251Y029327D03*
X029251Y030075D03*
X030251Y030075D03*
X030251Y029327D03*
D19*
X022385Y035401D03*
X020417Y035401D03*
D20*
X021401Y035401D03*
D21*
X030026Y035276D03*
X030026Y036276D03*
X030026Y034276D03*
X030026Y033276D03*
X030026Y032276D03*
X030026Y031276D03*
D22*
X016439Y033861D03*
X009439Y033861D03*
X002459Y033801D03*
D23*
X003483Y033368D03*
X003483Y034234D03*
X010463Y034294D03*
X010463Y033428D03*
X017463Y033428D03*
X017463Y034294D03*
D24*
X007176Y036533D03*
D25*
X007176Y036540D03*
D26*
X007173Y036547D03*
D27*
X007169Y036554D03*
D28*
X007166Y036561D03*
D29*
X007162Y036568D03*
D30*
X007162Y036575D03*
X007750Y037394D03*
D31*
X007162Y036582D03*
X007729Y038402D03*
D32*
X007155Y036589D03*
D33*
X007155Y036596D03*
D34*
X007155Y036603D03*
D35*
X007148Y036610D03*
D36*
X007148Y036617D03*
D37*
X007148Y036624D03*
X006714Y038108D03*
X006714Y038115D03*
X006714Y038129D03*
X006714Y038136D03*
D38*
X006487Y038115D03*
X006487Y038108D03*
X006487Y038101D03*
X006487Y038094D03*
X006480Y038059D03*
X006480Y038045D03*
X006473Y038003D03*
X006473Y037996D03*
X006473Y037989D03*
X006452Y037849D03*
X006452Y037835D03*
X006452Y037828D03*
X006452Y037821D03*
X006452Y037814D03*
X006445Y037800D03*
X006445Y037793D03*
X006445Y037786D03*
X006445Y037779D03*
X006445Y037765D03*
X006753Y037786D03*
X006753Y037793D03*
X006753Y037800D03*
X006753Y037814D03*
X006753Y037821D03*
X006760Y037765D03*
X006732Y036939D03*
X006760Y036918D03*
X006872Y036834D03*
X007047Y036708D03*
X007145Y036631D03*
D39*
X007141Y036638D03*
X007113Y036659D03*
X007036Y036715D03*
X007008Y036736D03*
X007001Y036743D03*
X006966Y036764D03*
X006938Y036785D03*
X006903Y036813D03*
X006861Y036841D03*
X006826Y036869D03*
X006798Y036890D03*
X006721Y036946D03*
X006756Y037779D03*
D40*
X007337Y038024D03*
X007337Y038031D03*
X007575Y038199D03*
X007575Y038206D03*
X006714Y036953D03*
X006749Y036925D03*
X006770Y036911D03*
X006777Y036904D03*
X006805Y036883D03*
X006819Y036876D03*
X006854Y036848D03*
X006889Y036820D03*
X006910Y036806D03*
X006917Y036799D03*
X006945Y036778D03*
X006959Y036771D03*
X006987Y036750D03*
X007015Y036729D03*
X007057Y036701D03*
X007064Y036694D03*
X007085Y036680D03*
X007092Y036673D03*
X007099Y036666D03*
X007127Y036645D03*
D41*
X007120Y036652D03*
X007029Y036722D03*
X006882Y036827D03*
X006742Y036932D03*
D42*
X006833Y036862D03*
X006931Y036792D03*
X007071Y036687D03*
D43*
X006977Y036757D03*
X006788Y036897D03*
X006760Y037772D03*
X006753Y037807D03*
X006452Y037807D03*
X006452Y037842D03*
X006445Y037772D03*
X006480Y038052D03*
D44*
X006466Y037954D03*
X006466Y037940D03*
X006466Y037933D03*
X006459Y037905D03*
X006459Y037898D03*
X006459Y037891D03*
X006459Y037884D03*
X006739Y037919D03*
X006746Y037870D03*
X006746Y037863D03*
X006746Y037856D03*
X006746Y037849D03*
X006844Y036855D03*
D45*
X006294Y036960D03*
D46*
X006221Y037065D03*
X007691Y037065D03*
X007691Y037058D03*
X007691Y037051D03*
X007691Y037044D03*
X007691Y037030D03*
X007691Y037023D03*
X007691Y037016D03*
X007691Y037009D03*
X007691Y036995D03*
X007691Y036988D03*
X007691Y036981D03*
X007691Y036974D03*
X007691Y036960D03*
X007691Y037079D03*
X007691Y037086D03*
X007691Y037093D03*
X007691Y038759D03*
X007691Y038766D03*
X007691Y038773D03*
X007691Y038780D03*
X007691Y038850D03*
X007691Y038864D03*
X007691Y038871D03*
X007691Y038878D03*
X007691Y038885D03*
D47*
X006291Y036967D03*
D48*
X007691Y036967D03*
X007691Y037002D03*
X007691Y037037D03*
X007691Y037072D03*
X007691Y038752D03*
X007691Y038787D03*
X007691Y038857D03*
D49*
X006284Y036974D03*
D50*
X006280Y036981D03*
D51*
X006273Y036988D03*
D52*
X006270Y036995D03*
D53*
X006263Y037002D03*
D54*
X006259Y037009D03*
D55*
X006252Y037016D03*
D56*
X006249Y037023D03*
D57*
X006245Y037030D03*
D58*
X006242Y037037D03*
D59*
X006235Y037044D03*
D60*
X006231Y037051D03*
D61*
X006224Y037058D03*
D62*
X006217Y037072D03*
D63*
X006210Y037079D03*
D64*
X006207Y037086D03*
D65*
X006200Y037093D03*
D66*
X005843Y037100D03*
X005843Y037114D03*
X005843Y037121D03*
X005843Y037128D03*
X005843Y037135D03*
X005843Y037149D03*
X005843Y037156D03*
X005843Y037163D03*
X005843Y037170D03*
X005843Y037184D03*
X005843Y037191D03*
X005843Y037198D03*
X005843Y037205D03*
X005843Y037219D03*
X005843Y037226D03*
X005843Y037233D03*
X005843Y037240D03*
X005843Y037254D03*
X005843Y037261D03*
X005843Y037268D03*
X005843Y037275D03*
X005843Y037289D03*
X005843Y037296D03*
X005843Y037303D03*
X005843Y037310D03*
X005843Y037324D03*
X005843Y037331D03*
X005843Y037338D03*
X005843Y037345D03*
X005843Y037359D03*
X005843Y037366D03*
X005843Y037373D03*
X005843Y037380D03*
X005843Y037394D03*
X005843Y037401D03*
X005843Y037408D03*
X005843Y038388D03*
X005843Y038395D03*
X005843Y038409D03*
X005843Y038416D03*
X005843Y038423D03*
X005843Y038430D03*
X005843Y038444D03*
X005843Y038451D03*
X005843Y038458D03*
X005843Y038465D03*
X005843Y038479D03*
X005843Y038486D03*
X005843Y038493D03*
X005843Y038500D03*
X005843Y038514D03*
X005843Y038521D03*
X005843Y038528D03*
X005843Y038535D03*
X005843Y038549D03*
X005843Y038556D03*
X005843Y038563D03*
X005843Y038570D03*
X005843Y038584D03*
X005843Y038591D03*
X005843Y038598D03*
X005843Y038605D03*
X005843Y038619D03*
X005843Y038626D03*
X005843Y038633D03*
X005843Y038640D03*
X005843Y038654D03*
X005843Y038661D03*
X005843Y038668D03*
X005843Y038675D03*
X005843Y038689D03*
X005843Y038696D03*
X005843Y038703D03*
X005843Y038710D03*
X005843Y038724D03*
X005843Y038731D03*
X005843Y038738D03*
X005843Y038745D03*
D67*
X008072Y038745D03*
X008072Y038738D03*
X008072Y038731D03*
X008072Y038724D03*
X008072Y038710D03*
X008072Y038703D03*
X008072Y038696D03*
X008072Y038689D03*
X008072Y038675D03*
X008072Y038668D03*
X008072Y038661D03*
X008072Y038654D03*
X008072Y038640D03*
X008072Y038633D03*
X008072Y038626D03*
X008072Y038619D03*
X008072Y038605D03*
X008072Y038598D03*
X008072Y038591D03*
X008072Y038584D03*
X008072Y038570D03*
X008072Y038563D03*
X008072Y038556D03*
X008072Y038549D03*
X008072Y038535D03*
X008072Y038528D03*
X008072Y038521D03*
X008072Y038514D03*
X008072Y038500D03*
X008072Y038493D03*
X008072Y038486D03*
X008072Y038479D03*
X008072Y038465D03*
X008072Y038458D03*
X008072Y038451D03*
X008072Y038444D03*
X008072Y038430D03*
X008072Y038423D03*
X008072Y038416D03*
X008072Y038409D03*
X008072Y038395D03*
X008072Y038388D03*
X008072Y038381D03*
X008072Y038374D03*
X008072Y038360D03*
X008072Y038353D03*
X008072Y038346D03*
X008072Y038339D03*
X008072Y038325D03*
X008072Y038318D03*
X008072Y038311D03*
X008072Y038304D03*
X008072Y038290D03*
X008072Y038283D03*
X008072Y038276D03*
X008072Y038269D03*
X008072Y038255D03*
X008072Y038248D03*
X008072Y038241D03*
X008072Y038080D03*
X008072Y038073D03*
X008072Y038066D03*
X008072Y038059D03*
X008072Y038045D03*
X008072Y038038D03*
X008072Y038031D03*
X008072Y038024D03*
X008072Y038010D03*
X008072Y038003D03*
X008072Y037996D03*
X008072Y037989D03*
X008072Y037975D03*
X008072Y037968D03*
X008072Y037961D03*
X008072Y037954D03*
X008072Y037940D03*
X008072Y037933D03*
X008072Y037926D03*
X008072Y037919D03*
X008072Y037905D03*
X008072Y037898D03*
X008072Y037891D03*
X008072Y037884D03*
X008072Y037870D03*
X008072Y037863D03*
X008072Y037856D03*
X008072Y037849D03*
X008072Y037485D03*
X008072Y037478D03*
X008072Y037471D03*
X008072Y037464D03*
X008072Y037450D03*
X008072Y037443D03*
X008072Y037436D03*
X008072Y037429D03*
X008072Y037415D03*
X008072Y037408D03*
X008072Y037401D03*
X008072Y037394D03*
X008072Y037380D03*
X008072Y037373D03*
X008072Y037366D03*
X008072Y037359D03*
X008072Y037345D03*
X008072Y037338D03*
X008072Y037331D03*
X008072Y037324D03*
X008072Y037310D03*
X008072Y037303D03*
X008072Y037296D03*
X008072Y037289D03*
X008072Y037275D03*
X008072Y037268D03*
X008072Y037261D03*
X008072Y037254D03*
X008072Y037240D03*
X008072Y037233D03*
X008072Y037226D03*
X008072Y037219D03*
X008072Y037205D03*
X008072Y037198D03*
X008072Y037191D03*
X008072Y037184D03*
X008072Y037170D03*
X008072Y037163D03*
X008072Y037156D03*
X008072Y037149D03*
X008072Y037135D03*
X008072Y037128D03*
X008072Y037121D03*
X008072Y037114D03*
X008072Y037100D03*
D68*
X005843Y037107D03*
X005843Y037142D03*
X005843Y037177D03*
X005843Y037212D03*
X005843Y037247D03*
X005843Y037282D03*
X005843Y037317D03*
X005843Y037352D03*
X005843Y037387D03*
X005843Y038402D03*
X005843Y038437D03*
X005843Y038472D03*
X005843Y038507D03*
X005843Y038542D03*
X005843Y038577D03*
X005843Y038612D03*
X005843Y038647D03*
X005843Y038682D03*
X005843Y038717D03*
D69*
X008072Y038717D03*
X008072Y038682D03*
X008072Y038647D03*
X008072Y038612D03*
X008072Y038577D03*
X008072Y038542D03*
X008072Y038507D03*
X008072Y038472D03*
X008072Y038437D03*
X008072Y038402D03*
X008072Y038367D03*
X008072Y038332D03*
X008072Y038297D03*
X008072Y038262D03*
X008072Y038087D03*
X008072Y038052D03*
X008072Y038017D03*
X008072Y037982D03*
X008072Y037947D03*
X008072Y037912D03*
X008072Y037877D03*
X008072Y037842D03*
X008072Y037492D03*
X008072Y037457D03*
X008072Y037422D03*
X008072Y037387D03*
X008072Y037352D03*
X008072Y037317D03*
X008072Y037282D03*
X008072Y037247D03*
X008072Y037212D03*
X008072Y037177D03*
X008072Y037142D03*
X008072Y037107D03*
D70*
X007750Y037401D03*
D71*
X007750Y037408D03*
X007351Y037793D03*
X007351Y037800D03*
X007344Y037828D03*
X007330Y038206D03*
D72*
X006158Y037429D03*
X006158Y037415D03*
D73*
X006980Y037415D03*
D74*
X007754Y037415D03*
D75*
X007047Y037457D03*
X006158Y037422D03*
D76*
X007015Y037422D03*
D77*
X007750Y037422D03*
D78*
X007026Y037429D03*
D79*
X007750Y037429D03*
X007645Y038003D03*
D80*
X007050Y037464D03*
X006161Y037471D03*
X006161Y037464D03*
X006161Y037450D03*
X006161Y037443D03*
X006161Y037436D03*
X006161Y037478D03*
X006161Y037485D03*
X006161Y037499D03*
X006161Y037506D03*
D81*
X007033Y037436D03*
D82*
X007750Y037436D03*
X006595Y038339D03*
X006595Y038346D03*
X006595Y038353D03*
X006595Y038360D03*
X006595Y038374D03*
D83*
X007040Y037443D03*
D84*
X007750Y037443D03*
X007946Y037555D03*
X007946Y037758D03*
X007799Y037863D03*
X007792Y037870D03*
X007680Y037968D03*
X006595Y038290D03*
X006595Y038304D03*
X006595Y038311D03*
X006595Y038318D03*
X005965Y038318D03*
X005965Y038311D03*
X005965Y038304D03*
X005965Y038290D03*
X005965Y038283D03*
X005965Y038276D03*
X005965Y038269D03*
X005965Y038255D03*
X005965Y038248D03*
X005965Y038241D03*
X005965Y038234D03*
X005965Y038220D03*
X005965Y038213D03*
X005965Y038206D03*
X005965Y038199D03*
X005965Y038185D03*
X005965Y038178D03*
X005965Y038171D03*
X005965Y038164D03*
X005965Y038150D03*
X005965Y038143D03*
X005965Y038136D03*
X005965Y038129D03*
X005965Y038115D03*
X005965Y038108D03*
X005965Y038101D03*
X005965Y038094D03*
X005965Y038080D03*
X005965Y038073D03*
X005965Y038066D03*
X005965Y038059D03*
X005965Y038045D03*
X005965Y038038D03*
X005965Y038031D03*
X005965Y038024D03*
X005965Y038010D03*
X005965Y038003D03*
X005965Y037996D03*
X005965Y037989D03*
X005965Y037975D03*
X005965Y037968D03*
X005965Y037961D03*
X005965Y037954D03*
X005965Y037940D03*
X005965Y037933D03*
X005965Y037926D03*
X005965Y037919D03*
X005965Y037905D03*
X005965Y037898D03*
X005965Y037891D03*
X005965Y037884D03*
X005965Y037870D03*
X005965Y037863D03*
X005965Y037856D03*
X005965Y037849D03*
X005965Y037835D03*
X005965Y037828D03*
X005965Y037821D03*
X005965Y037814D03*
X005965Y037800D03*
X005965Y037793D03*
X005965Y037786D03*
X005965Y037779D03*
X005965Y037765D03*
X005965Y037758D03*
X005965Y037751D03*
X005965Y037744D03*
X005965Y037730D03*
X005965Y037723D03*
X005965Y037716D03*
X005965Y037709D03*
X005965Y037695D03*
X005965Y037688D03*
X005965Y037681D03*
X005965Y037674D03*
X005965Y037660D03*
X005965Y037653D03*
X005965Y037646D03*
X005965Y037639D03*
X005965Y037625D03*
X005965Y037618D03*
X005965Y037611D03*
X005965Y038325D03*
X005965Y038339D03*
X005965Y038346D03*
X005965Y038353D03*
X005965Y038360D03*
X005965Y038374D03*
X005965Y038381D03*
D85*
X007043Y037450D03*
D86*
X007750Y037450D03*
X006595Y038199D03*
X006595Y038206D03*
X006595Y038213D03*
D87*
X006161Y037492D03*
X006161Y037457D03*
D88*
X006595Y038157D03*
X007106Y038367D03*
X007750Y037457D03*
D89*
X007750Y037464D03*
D90*
X007054Y037471D03*
D91*
X007750Y037471D03*
X007904Y037821D03*
D92*
X007057Y037485D03*
X007057Y037478D03*
D93*
X007131Y037926D03*
X007131Y038346D03*
X007754Y037478D03*
X007901Y037828D03*
D94*
X007750Y037485D03*
X007470Y038080D03*
X007736Y038311D03*
D95*
X007061Y037492D03*
D96*
X007750Y037492D03*
X007141Y038332D03*
D97*
X007061Y037499D03*
D98*
X007817Y037506D03*
X007817Y037499D03*
D99*
X007064Y037506D03*
X007064Y037513D03*
D100*
X006165Y037520D03*
X006165Y037513D03*
X006165Y037534D03*
X006165Y037541D03*
X006165Y037548D03*
X006165Y037555D03*
X006165Y037569D03*
X006165Y037576D03*
X006165Y037583D03*
D101*
X007813Y037520D03*
X007813Y037513D03*
D102*
X007061Y037520D03*
D103*
X006165Y037527D03*
X006165Y037562D03*
D104*
X007064Y037527D03*
X006182Y038752D03*
X006182Y038787D03*
X006182Y038857D03*
D105*
X007810Y037527D03*
D106*
X007064Y037534D03*
X007064Y037541D03*
X006182Y038759D03*
X006182Y038766D03*
X006182Y038773D03*
X006182Y038780D03*
X006182Y038850D03*
X006182Y038864D03*
X006182Y038871D03*
X006182Y038878D03*
X006182Y038885D03*
D107*
X007810Y037541D03*
X007810Y037534D03*
D108*
X007397Y037548D03*
D109*
X007190Y037555D03*
D110*
X007183Y037562D03*
D111*
X007666Y037982D03*
X007953Y038227D03*
X007953Y037562D03*
D112*
X007180Y037569D03*
X007180Y037576D03*
D113*
X007663Y037989D03*
X007957Y038094D03*
X007957Y038101D03*
X007957Y038108D03*
X007957Y038115D03*
X007957Y038129D03*
X007957Y038136D03*
X007957Y038143D03*
X007957Y038150D03*
X007957Y038164D03*
X007957Y038171D03*
X007957Y038178D03*
X007957Y038185D03*
X007957Y038199D03*
X007957Y038206D03*
X007957Y038213D03*
X007957Y037569D03*
D114*
X007960Y037576D03*
X007960Y037583D03*
X007960Y037709D03*
X007960Y037716D03*
X007960Y037723D03*
X007960Y037730D03*
D115*
X007894Y037835D03*
X007733Y038304D03*
X007474Y038073D03*
X007138Y038339D03*
X006900Y037583D03*
X007453Y037590D03*
D116*
X007446Y037583D03*
X007481Y038059D03*
D117*
X006459Y037604D03*
X006459Y037590D03*
D118*
X007964Y037590D03*
X007964Y037604D03*
X007964Y037611D03*
X007964Y037618D03*
X007964Y037625D03*
X007964Y037639D03*
X007964Y037646D03*
X007964Y037653D03*
X007964Y037660D03*
X007964Y037674D03*
X007964Y037681D03*
X007964Y037688D03*
X007964Y037695D03*
D119*
X006459Y037597D03*
D120*
X007134Y037947D03*
X007456Y037597D03*
D121*
X007733Y038367D03*
X007964Y037702D03*
X007964Y037667D03*
X007964Y037632D03*
X007964Y037597D03*
D122*
X007733Y038318D03*
X007460Y037611D03*
X007460Y037604D03*
D123*
X006728Y037611D03*
X006728Y037618D03*
X006728Y037625D03*
X006728Y037639D03*
D124*
X007463Y037646D03*
X007463Y037639D03*
X007463Y037625D03*
X007463Y037618D03*
X007463Y037653D03*
X007463Y037660D03*
X007463Y037674D03*
X007463Y037681D03*
X007463Y037688D03*
X007463Y037695D03*
X007463Y037709D03*
X007463Y037716D03*
X007463Y037723D03*
X007463Y037730D03*
X007463Y037744D03*
X007463Y037751D03*
X007463Y037758D03*
X007463Y038094D03*
X007463Y038101D03*
X007463Y038108D03*
X007456Y038178D03*
X007456Y038185D03*
D125*
X006595Y038297D03*
X005965Y038297D03*
X005965Y038262D03*
X005965Y038227D03*
X005965Y038192D03*
X005965Y038157D03*
X005965Y038122D03*
X005965Y038087D03*
X005965Y038052D03*
X005965Y038017D03*
X005965Y037982D03*
X005965Y037947D03*
X005965Y037912D03*
X005965Y037877D03*
X005965Y037842D03*
X005965Y037807D03*
X005965Y037772D03*
X005965Y037737D03*
X005965Y037702D03*
X005965Y037667D03*
X005965Y037632D03*
X005965Y038332D03*
X005965Y038367D03*
D126*
X006728Y037632D03*
D127*
X007463Y037632D03*
X007463Y037667D03*
X007463Y037702D03*
X007463Y037737D03*
X007456Y038192D03*
D128*
X006602Y037688D03*
X006602Y037681D03*
X006602Y037674D03*
X006602Y037660D03*
X006602Y037653D03*
X006602Y037646D03*
D129*
X007019Y037646D03*
X007019Y037653D03*
X007019Y037660D03*
X007019Y037674D03*
X007019Y037681D03*
X007019Y037688D03*
X007019Y037695D03*
X007019Y037709D03*
X007019Y037716D03*
X007019Y037723D03*
X007019Y037730D03*
X007019Y037744D03*
X007019Y037751D03*
X007019Y037758D03*
X007019Y037765D03*
X007019Y037779D03*
X007019Y037786D03*
X007019Y037793D03*
X007019Y037800D03*
X007019Y037814D03*
X007019Y037821D03*
X007019Y037828D03*
X007019Y037835D03*
X007019Y037849D03*
X007019Y038003D03*
X007019Y038010D03*
X007019Y038024D03*
X007019Y038031D03*
X007019Y038038D03*
X007019Y038045D03*
X007019Y038059D03*
X007019Y038066D03*
X007019Y038073D03*
X007019Y038080D03*
X007019Y038094D03*
X007019Y038101D03*
X007019Y038108D03*
X007019Y038115D03*
X007019Y038129D03*
X007019Y038136D03*
X007019Y038143D03*
X007019Y038150D03*
X007019Y038164D03*
X007019Y038171D03*
X007019Y038178D03*
X007019Y038185D03*
X007019Y038199D03*
X007019Y038206D03*
X007019Y038213D03*
X007341Y037835D03*
X007348Y037821D03*
X007348Y037814D03*
X007586Y038234D03*
X007733Y038388D03*
D130*
X006602Y037667D03*
D131*
X007019Y037667D03*
X007019Y037702D03*
X007019Y037737D03*
X007019Y037772D03*
X007019Y037807D03*
X007019Y037842D03*
X007019Y038017D03*
X007019Y038052D03*
X007019Y038087D03*
X007019Y038122D03*
X007019Y038157D03*
X007019Y038192D03*
D132*
X007173Y038220D03*
X007173Y037870D03*
X007173Y037863D03*
X006599Y037695D03*
D133*
X006602Y037702D03*
D134*
X006602Y037709D03*
X006602Y037716D03*
X006602Y037723D03*
X006602Y037730D03*
D135*
X006599Y037737D03*
X007166Y038262D03*
D136*
X007957Y038192D03*
X007957Y038157D03*
X007957Y038122D03*
X007957Y037737D03*
D137*
X007166Y037884D03*
X007166Y037989D03*
X007166Y037996D03*
X007166Y038269D03*
X006599Y037744D03*
D138*
X007806Y037856D03*
X007813Y037849D03*
X007953Y037744D03*
X007953Y038220D03*
D139*
X007729Y038241D03*
X007162Y038276D03*
X007162Y038283D03*
X007162Y037891D03*
X006602Y037758D03*
X006602Y037751D03*
D140*
X007950Y037751D03*
X007950Y038234D03*
D141*
X007355Y037786D03*
X007355Y037779D03*
X007355Y037765D03*
D142*
X007691Y037961D03*
X007698Y037954D03*
X007943Y037765D03*
X007733Y038353D03*
X006599Y038283D03*
X006599Y038276D03*
D143*
X007355Y037772D03*
D144*
X007939Y037772D03*
X006595Y038262D03*
D145*
X006599Y038241D03*
X006599Y038234D03*
X006599Y038220D03*
X007719Y037933D03*
X007726Y037926D03*
X007754Y037905D03*
X007761Y037898D03*
X007936Y037779D03*
D146*
X007929Y037786D03*
X007733Y038346D03*
X006599Y038185D03*
X006599Y038178D03*
X006599Y038171D03*
D147*
X006595Y038164D03*
X007925Y037793D03*
D148*
X007918Y037800D03*
D149*
X007582Y038227D03*
X007351Y037807D03*
D150*
X007915Y037807D03*
D151*
X007908Y037814D03*
X007733Y038325D03*
X007124Y038353D03*
D152*
X006728Y038010D03*
X006728Y038003D03*
X006728Y037996D03*
X006728Y037989D03*
X006735Y037961D03*
X006735Y037954D03*
X006735Y037940D03*
X006735Y037933D03*
X006735Y037926D03*
X006749Y037835D03*
X006749Y037828D03*
X006455Y037856D03*
X006455Y037863D03*
X006455Y037870D03*
X006469Y037961D03*
X006469Y037968D03*
X006469Y037975D03*
X006476Y038010D03*
X006476Y038024D03*
X006476Y038031D03*
X006476Y038038D03*
X006483Y038066D03*
X006483Y038073D03*
X006483Y038080D03*
X006490Y038129D03*
X006490Y038136D03*
X006490Y038143D03*
D153*
X006466Y037947D03*
X006459Y037877D03*
X006739Y037912D03*
X006746Y037842D03*
D154*
X007337Y037842D03*
D155*
X007820Y037842D03*
D156*
X007316Y037849D03*
D157*
X007176Y037856D03*
D158*
X006742Y037877D03*
X006462Y037912D03*
D159*
X007169Y037877D03*
D160*
X007782Y037877D03*
D161*
X006742Y037884D03*
X006742Y037891D03*
X006742Y037898D03*
X006742Y037905D03*
X006462Y037919D03*
X006462Y037926D03*
D162*
X007708Y037940D03*
X007771Y037891D03*
X007778Y037884D03*
D163*
X007733Y038248D03*
X007733Y038255D03*
X007159Y038290D03*
X007159Y037975D03*
X007159Y037898D03*
D164*
X007155Y037905D03*
X007155Y037968D03*
X007155Y038304D03*
X007491Y038045D03*
X007736Y038269D03*
D165*
X007148Y037912D03*
D166*
X007747Y037912D03*
D167*
X007141Y037919D03*
X007141Y037954D03*
D168*
X007733Y037919D03*
D169*
X007120Y037933D03*
X007120Y037940D03*
D170*
X006735Y037947D03*
X006728Y037982D03*
X006476Y038017D03*
X006469Y037982D03*
X006483Y038087D03*
X006490Y038122D03*
D171*
X007701Y037947D03*
D172*
X007736Y038290D03*
X007148Y038318D03*
X007148Y037961D03*
D173*
X006732Y037968D03*
X006732Y037975D03*
X006725Y038024D03*
X006725Y038031D03*
X006725Y038038D03*
X006725Y038045D03*
X006718Y038059D03*
X006718Y038066D03*
X006718Y038073D03*
X006718Y038080D03*
X006718Y038094D03*
X006718Y038101D03*
X006711Y038143D03*
D174*
X006599Y038325D03*
X007677Y037975D03*
X007733Y038360D03*
D175*
X007162Y037982D03*
D176*
X007652Y037996D03*
D177*
X007316Y038003D03*
X007323Y038213D03*
D178*
X007334Y038199D03*
X007327Y038010D03*
X007579Y038213D03*
X007579Y038220D03*
D179*
X007642Y038010D03*
D180*
X006725Y038017D03*
X006725Y038052D03*
X006718Y038087D03*
D181*
X007334Y038017D03*
D182*
X007631Y038017D03*
D183*
X007628Y038024D03*
X007733Y038374D03*
D184*
X007621Y038031D03*
D185*
X007491Y038038D03*
D186*
X007484Y038052D03*
D187*
X007477Y038066D03*
D188*
X007467Y038087D03*
D189*
X007460Y038115D03*
X007460Y038129D03*
X007460Y038136D03*
X007460Y038143D03*
X007460Y038150D03*
X007460Y038164D03*
X007460Y038171D03*
D190*
X006714Y038122D03*
D191*
X007460Y038122D03*
X007460Y038157D03*
D192*
X006599Y038150D03*
D193*
X006599Y038192D03*
D194*
X006599Y038227D03*
D195*
X007173Y038227D03*
D196*
X007169Y038234D03*
X007169Y038241D03*
X007169Y038248D03*
X007169Y038255D03*
D197*
X007092Y038374D03*
X006595Y038269D03*
X006595Y038255D03*
X006595Y038248D03*
D198*
X007159Y038297D03*
X007733Y038262D03*
D199*
X007733Y038276D03*
X007733Y038283D03*
X007152Y038311D03*
D200*
X007733Y038297D03*
D201*
X007145Y038325D03*
D202*
X006599Y038332D03*
D203*
X007733Y038332D03*
D204*
X007733Y038339D03*
D205*
X007117Y038360D03*
D206*
X006595Y038367D03*
D207*
X006599Y038381D03*
D208*
X007061Y038381D03*
D209*
X007733Y038381D03*
D210*
X007733Y038395D03*
D211*
X006956Y038794D03*
X006956Y038801D03*
X006956Y038808D03*
X006956Y038815D03*
X006956Y038829D03*
X006956Y038836D03*
X006956Y038843D03*
D212*
X006956Y038822D03*
D213*
X023799Y032841D03*
X024114Y032841D03*
X024429Y032841D03*
X024744Y032841D03*
X025059Y032841D03*
X025374Y032841D03*
X025689Y032841D03*
X026004Y032841D03*
X026004Y029461D03*
X025689Y029461D03*
X025374Y029461D03*
X025059Y029461D03*
X024744Y029461D03*
X024429Y029461D03*
X024114Y029461D03*
X023799Y029461D03*
D214*
X023211Y030049D03*
X023211Y030364D03*
X023211Y030679D03*
X023211Y030994D03*
X023211Y031309D03*
X023211Y031624D03*
X023211Y031939D03*
X023211Y032254D03*
X026591Y032254D03*
X026591Y031939D03*
X026591Y031624D03*
X026591Y031309D03*
X026591Y030994D03*
X026591Y030679D03*
X026591Y030364D03*
X026591Y030049D03*
M02*
