G75*
G70*
%OFA0B0*%
%FSLAX24Y24*%
%IPPOS*%
%LPD*%
%AMOC8*
5,1,8,0,0,1.08239X$1,22.5*
%
%ADD10C,0.0010*%
%ADD11C,0.0039*%
%ADD12C,0.0000*%
%ADD13R,0.2500X0.2500*%
%ADD14R,0.2000X0.1700*%
D10*
X027651Y000151D02*
X029151Y000151D01*
D11*
X000151Y002120D02*
X000151Y018151D01*
X000151Y037433D01*
X000153Y037527D01*
X000160Y037620D01*
X000171Y037713D01*
X000187Y037806D01*
X000207Y037897D01*
X000231Y037988D01*
X000259Y038077D01*
X000292Y038165D01*
X000329Y038251D01*
X000370Y038335D01*
X000415Y038418D01*
X000464Y038498D01*
X000516Y038575D01*
X000572Y038650D01*
X000632Y038722D01*
X000695Y038792D01*
X000761Y038858D01*
X000831Y038921D01*
X000903Y038981D01*
X000978Y039037D01*
X001055Y039089D01*
X001135Y039138D01*
X001218Y039183D01*
X001302Y039224D01*
X001388Y039261D01*
X001476Y039294D01*
X001565Y039322D01*
X001656Y039346D01*
X001747Y039366D01*
X001840Y039382D01*
X001933Y039393D01*
X002026Y039400D01*
X002120Y039402D01*
X002120Y039401D02*
X015651Y039401D01*
X029183Y039401D01*
X029183Y039402D02*
X029277Y039400D01*
X029370Y039393D01*
X029463Y039382D01*
X029556Y039366D01*
X029647Y039346D01*
X029738Y039322D01*
X029827Y039294D01*
X029915Y039261D01*
X030001Y039224D01*
X030085Y039183D01*
X030167Y039138D01*
X030248Y039089D01*
X030325Y039037D01*
X030400Y038981D01*
X030472Y038921D01*
X030542Y038858D01*
X030608Y038792D01*
X030671Y038722D01*
X030731Y038650D01*
X030787Y038575D01*
X030839Y038498D01*
X030888Y038417D01*
X030933Y038335D01*
X030974Y038251D01*
X031011Y038165D01*
X031044Y038077D01*
X031072Y037988D01*
X031096Y037897D01*
X031116Y037806D01*
X031132Y037713D01*
X031143Y037620D01*
X031150Y037527D01*
X031152Y037433D01*
X031151Y037433D02*
X031151Y020901D01*
X031151Y002120D01*
X031152Y002120D02*
X031150Y002026D01*
X031143Y001933D01*
X031132Y001840D01*
X031116Y001747D01*
X031096Y001656D01*
X031072Y001565D01*
X031044Y001476D01*
X031011Y001388D01*
X030974Y001302D01*
X030933Y001218D01*
X030888Y001136D01*
X030839Y001055D01*
X030787Y000978D01*
X030731Y000903D01*
X030671Y000831D01*
X030608Y000761D01*
X030542Y000695D01*
X030472Y000632D01*
X030400Y000572D01*
X030325Y000516D01*
X030248Y000464D01*
X030168Y000415D01*
X030085Y000370D01*
X030001Y000329D01*
X029915Y000292D01*
X029827Y000259D01*
X029738Y000231D01*
X029647Y000207D01*
X029556Y000187D01*
X029463Y000171D01*
X029370Y000160D01*
X029277Y000153D01*
X029183Y000151D01*
X014651Y000151D01*
X002120Y000151D01*
X002026Y000153D01*
X001933Y000160D01*
X001840Y000171D01*
X001747Y000187D01*
X001656Y000207D01*
X001565Y000231D01*
X001476Y000259D01*
X001388Y000292D01*
X001302Y000329D01*
X001218Y000370D01*
X001135Y000415D01*
X001055Y000464D01*
X000978Y000516D01*
X000903Y000572D01*
X000831Y000632D01*
X000761Y000695D01*
X000695Y000761D01*
X000632Y000831D01*
X000572Y000903D01*
X000516Y000978D01*
X000464Y001055D01*
X000415Y001136D01*
X000370Y001218D01*
X000329Y001302D01*
X000292Y001388D01*
X000259Y001476D01*
X000231Y001565D01*
X000207Y001656D01*
X000187Y001747D01*
X000171Y001840D01*
X000160Y001933D01*
X000153Y002026D01*
X000151Y002120D01*
D12*
X003336Y003401D02*
X003338Y003436D01*
X003344Y003471D01*
X003354Y003505D01*
X003367Y003538D01*
X003384Y003569D01*
X003405Y003597D01*
X003428Y003624D01*
X003455Y003647D01*
X003483Y003668D01*
X003514Y003685D01*
X003547Y003698D01*
X003581Y003708D01*
X003616Y003714D01*
X003651Y003716D01*
X003686Y003714D01*
X003721Y003708D01*
X003755Y003698D01*
X003788Y003685D01*
X003819Y003668D01*
X003847Y003647D01*
X003874Y003624D01*
X003897Y003597D01*
X003918Y003569D01*
X003935Y003538D01*
X003948Y003505D01*
X003958Y003471D01*
X003964Y003436D01*
X003966Y003401D01*
X003964Y003366D01*
X003958Y003331D01*
X003948Y003297D01*
X003935Y003264D01*
X003918Y003233D01*
X003897Y003205D01*
X003874Y003178D01*
X003847Y003155D01*
X003819Y003134D01*
X003788Y003117D01*
X003755Y003104D01*
X003721Y003094D01*
X003686Y003088D01*
X003651Y003086D01*
X003616Y003088D01*
X003581Y003094D01*
X003547Y003104D01*
X003514Y003117D01*
X003483Y003134D01*
X003455Y003155D01*
X003428Y003178D01*
X003405Y003205D01*
X003384Y003233D01*
X003367Y003264D01*
X003354Y003297D01*
X003344Y003331D01*
X003338Y003366D01*
X003336Y003401D01*
X003336Y009401D02*
X003338Y009436D01*
X003344Y009471D01*
X003354Y009505D01*
X003367Y009538D01*
X003384Y009569D01*
X003405Y009597D01*
X003428Y009624D01*
X003455Y009647D01*
X003483Y009668D01*
X003514Y009685D01*
X003547Y009698D01*
X003581Y009708D01*
X003616Y009714D01*
X003651Y009716D01*
X003686Y009714D01*
X003721Y009708D01*
X003755Y009698D01*
X003788Y009685D01*
X003819Y009668D01*
X003847Y009647D01*
X003874Y009624D01*
X003897Y009597D01*
X003918Y009569D01*
X003935Y009538D01*
X003948Y009505D01*
X003958Y009471D01*
X003964Y009436D01*
X003966Y009401D01*
X003964Y009366D01*
X003958Y009331D01*
X003948Y009297D01*
X003935Y009264D01*
X003918Y009233D01*
X003897Y009205D01*
X003874Y009178D01*
X003847Y009155D01*
X003819Y009134D01*
X003788Y009117D01*
X003755Y009104D01*
X003721Y009094D01*
X003686Y009088D01*
X003651Y009086D01*
X003616Y009088D01*
X003581Y009094D01*
X003547Y009104D01*
X003514Y009117D01*
X003483Y009134D01*
X003455Y009155D01*
X003428Y009178D01*
X003405Y009205D01*
X003384Y009233D01*
X003367Y009264D01*
X003354Y009297D01*
X003344Y009331D01*
X003338Y009366D01*
X003336Y009401D01*
X003336Y015401D02*
X003338Y015436D01*
X003344Y015471D01*
X003354Y015505D01*
X003367Y015538D01*
X003384Y015569D01*
X003405Y015597D01*
X003428Y015624D01*
X003455Y015647D01*
X003483Y015668D01*
X003514Y015685D01*
X003547Y015698D01*
X003581Y015708D01*
X003616Y015714D01*
X003651Y015716D01*
X003686Y015714D01*
X003721Y015708D01*
X003755Y015698D01*
X003788Y015685D01*
X003819Y015668D01*
X003847Y015647D01*
X003874Y015624D01*
X003897Y015597D01*
X003918Y015569D01*
X003935Y015538D01*
X003948Y015505D01*
X003958Y015471D01*
X003964Y015436D01*
X003966Y015401D01*
X003964Y015366D01*
X003958Y015331D01*
X003948Y015297D01*
X003935Y015264D01*
X003918Y015233D01*
X003897Y015205D01*
X003874Y015178D01*
X003847Y015155D01*
X003819Y015134D01*
X003788Y015117D01*
X003755Y015104D01*
X003721Y015094D01*
X003686Y015088D01*
X003651Y015086D01*
X003616Y015088D01*
X003581Y015094D01*
X003547Y015104D01*
X003514Y015117D01*
X003483Y015134D01*
X003455Y015155D01*
X003428Y015178D01*
X003405Y015205D01*
X003384Y015233D01*
X003367Y015264D01*
X003354Y015297D01*
X003344Y015331D01*
X003338Y015366D01*
X003336Y015401D01*
X003336Y021401D02*
X003338Y021436D01*
X003344Y021471D01*
X003354Y021505D01*
X003367Y021538D01*
X003384Y021569D01*
X003405Y021597D01*
X003428Y021624D01*
X003455Y021647D01*
X003483Y021668D01*
X003514Y021685D01*
X003547Y021698D01*
X003581Y021708D01*
X003616Y021714D01*
X003651Y021716D01*
X003686Y021714D01*
X003721Y021708D01*
X003755Y021698D01*
X003788Y021685D01*
X003819Y021668D01*
X003847Y021647D01*
X003874Y021624D01*
X003897Y021597D01*
X003918Y021569D01*
X003935Y021538D01*
X003948Y021505D01*
X003958Y021471D01*
X003964Y021436D01*
X003966Y021401D01*
X003964Y021366D01*
X003958Y021331D01*
X003948Y021297D01*
X003935Y021264D01*
X003918Y021233D01*
X003897Y021205D01*
X003874Y021178D01*
X003847Y021155D01*
X003819Y021134D01*
X003788Y021117D01*
X003755Y021104D01*
X003721Y021094D01*
X003686Y021088D01*
X003651Y021086D01*
X003616Y021088D01*
X003581Y021094D01*
X003547Y021104D01*
X003514Y021117D01*
X003483Y021134D01*
X003455Y021155D01*
X003428Y021178D01*
X003405Y021205D01*
X003384Y021233D01*
X003367Y021264D01*
X003354Y021297D01*
X003344Y021331D01*
X003338Y021366D01*
X003336Y021401D01*
X003336Y027401D02*
X003338Y027436D01*
X003344Y027471D01*
X003354Y027505D01*
X003367Y027538D01*
X003384Y027569D01*
X003405Y027597D01*
X003428Y027624D01*
X003455Y027647D01*
X003483Y027668D01*
X003514Y027685D01*
X003547Y027698D01*
X003581Y027708D01*
X003616Y027714D01*
X003651Y027716D01*
X003686Y027714D01*
X003721Y027708D01*
X003755Y027698D01*
X003788Y027685D01*
X003819Y027668D01*
X003847Y027647D01*
X003874Y027624D01*
X003897Y027597D01*
X003918Y027569D01*
X003935Y027538D01*
X003948Y027505D01*
X003958Y027471D01*
X003964Y027436D01*
X003966Y027401D01*
X003964Y027366D01*
X003958Y027331D01*
X003948Y027297D01*
X003935Y027264D01*
X003918Y027233D01*
X003897Y027205D01*
X003874Y027178D01*
X003847Y027155D01*
X003819Y027134D01*
X003788Y027117D01*
X003755Y027104D01*
X003721Y027094D01*
X003686Y027088D01*
X003651Y027086D01*
X003616Y027088D01*
X003581Y027094D01*
X003547Y027104D01*
X003514Y027117D01*
X003483Y027134D01*
X003455Y027155D01*
X003428Y027178D01*
X003405Y027205D01*
X003384Y027233D01*
X003367Y027264D01*
X003354Y027297D01*
X003344Y027331D01*
X003338Y027366D01*
X003336Y027401D01*
X001336Y031651D02*
X001338Y031686D01*
X001344Y031721D01*
X001354Y031755D01*
X001367Y031788D01*
X001384Y031819D01*
X001405Y031847D01*
X001428Y031874D01*
X001455Y031897D01*
X001483Y031918D01*
X001514Y031935D01*
X001547Y031948D01*
X001581Y031958D01*
X001616Y031964D01*
X001651Y031966D01*
X001686Y031964D01*
X001721Y031958D01*
X001755Y031948D01*
X001788Y031935D01*
X001819Y031918D01*
X001847Y031897D01*
X001874Y031874D01*
X001897Y031847D01*
X001918Y031819D01*
X001935Y031788D01*
X001948Y031755D01*
X001958Y031721D01*
X001964Y031686D01*
X001966Y031651D01*
X001964Y031616D01*
X001958Y031581D01*
X001948Y031547D01*
X001935Y031514D01*
X001918Y031483D01*
X001897Y031455D01*
X001874Y031428D01*
X001847Y031405D01*
X001819Y031384D01*
X001788Y031367D01*
X001755Y031354D01*
X001721Y031344D01*
X001686Y031338D01*
X001651Y031336D01*
X001616Y031338D01*
X001581Y031344D01*
X001547Y031354D01*
X001514Y031367D01*
X001483Y031384D01*
X001455Y031405D01*
X001428Y031428D01*
X001405Y031455D01*
X001384Y031483D01*
X001367Y031514D01*
X001354Y031547D01*
X001344Y031581D01*
X001338Y031616D01*
X001336Y031651D01*
X004836Y031651D02*
X004838Y031686D01*
X004844Y031721D01*
X004854Y031755D01*
X004867Y031788D01*
X004884Y031819D01*
X004905Y031847D01*
X004928Y031874D01*
X004955Y031897D01*
X004983Y031918D01*
X005014Y031935D01*
X005047Y031948D01*
X005081Y031958D01*
X005116Y031964D01*
X005151Y031966D01*
X005186Y031964D01*
X005221Y031958D01*
X005255Y031948D01*
X005288Y031935D01*
X005319Y031918D01*
X005347Y031897D01*
X005374Y031874D01*
X005397Y031847D01*
X005418Y031819D01*
X005435Y031788D01*
X005448Y031755D01*
X005458Y031721D01*
X005464Y031686D01*
X005466Y031651D01*
X005464Y031616D01*
X005458Y031581D01*
X005448Y031547D01*
X005435Y031514D01*
X005418Y031483D01*
X005397Y031455D01*
X005374Y031428D01*
X005347Y031405D01*
X005319Y031384D01*
X005288Y031367D01*
X005255Y031354D01*
X005221Y031344D01*
X005186Y031338D01*
X005151Y031336D01*
X005116Y031338D01*
X005081Y031344D01*
X005047Y031354D01*
X005014Y031367D01*
X004983Y031384D01*
X004955Y031405D01*
X004928Y031428D01*
X004905Y031455D01*
X004884Y031483D01*
X004867Y031514D01*
X004854Y031547D01*
X004844Y031581D01*
X004838Y031616D01*
X004836Y031651D01*
X008336Y031651D02*
X008338Y031686D01*
X008344Y031721D01*
X008354Y031755D01*
X008367Y031788D01*
X008384Y031819D01*
X008405Y031847D01*
X008428Y031874D01*
X008455Y031897D01*
X008483Y031918D01*
X008514Y031935D01*
X008547Y031948D01*
X008581Y031958D01*
X008616Y031964D01*
X008651Y031966D01*
X008686Y031964D01*
X008721Y031958D01*
X008755Y031948D01*
X008788Y031935D01*
X008819Y031918D01*
X008847Y031897D01*
X008874Y031874D01*
X008897Y031847D01*
X008918Y031819D01*
X008935Y031788D01*
X008948Y031755D01*
X008958Y031721D01*
X008964Y031686D01*
X008966Y031651D01*
X008964Y031616D01*
X008958Y031581D01*
X008948Y031547D01*
X008935Y031514D01*
X008918Y031483D01*
X008897Y031455D01*
X008874Y031428D01*
X008847Y031405D01*
X008819Y031384D01*
X008788Y031367D01*
X008755Y031354D01*
X008721Y031344D01*
X008686Y031338D01*
X008651Y031336D01*
X008616Y031338D01*
X008581Y031344D01*
X008547Y031354D01*
X008514Y031367D01*
X008483Y031384D01*
X008455Y031405D01*
X008428Y031428D01*
X008405Y031455D01*
X008384Y031483D01*
X008367Y031514D01*
X008354Y031547D01*
X008344Y031581D01*
X008338Y031616D01*
X008336Y031651D01*
X009336Y027401D02*
X009338Y027436D01*
X009344Y027471D01*
X009354Y027505D01*
X009367Y027538D01*
X009384Y027569D01*
X009405Y027597D01*
X009428Y027624D01*
X009455Y027647D01*
X009483Y027668D01*
X009514Y027685D01*
X009547Y027698D01*
X009581Y027708D01*
X009616Y027714D01*
X009651Y027716D01*
X009686Y027714D01*
X009721Y027708D01*
X009755Y027698D01*
X009788Y027685D01*
X009819Y027668D01*
X009847Y027647D01*
X009874Y027624D01*
X009897Y027597D01*
X009918Y027569D01*
X009935Y027538D01*
X009948Y027505D01*
X009958Y027471D01*
X009964Y027436D01*
X009966Y027401D01*
X009964Y027366D01*
X009958Y027331D01*
X009948Y027297D01*
X009935Y027264D01*
X009918Y027233D01*
X009897Y027205D01*
X009874Y027178D01*
X009847Y027155D01*
X009819Y027134D01*
X009788Y027117D01*
X009755Y027104D01*
X009721Y027094D01*
X009686Y027088D01*
X009651Y027086D01*
X009616Y027088D01*
X009581Y027094D01*
X009547Y027104D01*
X009514Y027117D01*
X009483Y027134D01*
X009455Y027155D01*
X009428Y027178D01*
X009405Y027205D01*
X009384Y027233D01*
X009367Y027264D01*
X009354Y027297D01*
X009344Y027331D01*
X009338Y027366D01*
X009336Y027401D01*
X011836Y031651D02*
X011838Y031686D01*
X011844Y031721D01*
X011854Y031755D01*
X011867Y031788D01*
X011884Y031819D01*
X011905Y031847D01*
X011928Y031874D01*
X011955Y031897D01*
X011983Y031918D01*
X012014Y031935D01*
X012047Y031948D01*
X012081Y031958D01*
X012116Y031964D01*
X012151Y031966D01*
X012186Y031964D01*
X012221Y031958D01*
X012255Y031948D01*
X012288Y031935D01*
X012319Y031918D01*
X012347Y031897D01*
X012374Y031874D01*
X012397Y031847D01*
X012418Y031819D01*
X012435Y031788D01*
X012448Y031755D01*
X012458Y031721D01*
X012464Y031686D01*
X012466Y031651D01*
X012464Y031616D01*
X012458Y031581D01*
X012448Y031547D01*
X012435Y031514D01*
X012418Y031483D01*
X012397Y031455D01*
X012374Y031428D01*
X012347Y031405D01*
X012319Y031384D01*
X012288Y031367D01*
X012255Y031354D01*
X012221Y031344D01*
X012186Y031338D01*
X012151Y031336D01*
X012116Y031338D01*
X012081Y031344D01*
X012047Y031354D01*
X012014Y031367D01*
X011983Y031384D01*
X011955Y031405D01*
X011928Y031428D01*
X011905Y031455D01*
X011884Y031483D01*
X011867Y031514D01*
X011854Y031547D01*
X011844Y031581D01*
X011838Y031616D01*
X011836Y031651D01*
X015336Y031651D02*
X015338Y031686D01*
X015344Y031721D01*
X015354Y031755D01*
X015367Y031788D01*
X015384Y031819D01*
X015405Y031847D01*
X015428Y031874D01*
X015455Y031897D01*
X015483Y031918D01*
X015514Y031935D01*
X015547Y031948D01*
X015581Y031958D01*
X015616Y031964D01*
X015651Y031966D01*
X015686Y031964D01*
X015721Y031958D01*
X015755Y031948D01*
X015788Y031935D01*
X015819Y031918D01*
X015847Y031897D01*
X015874Y031874D01*
X015897Y031847D01*
X015918Y031819D01*
X015935Y031788D01*
X015948Y031755D01*
X015958Y031721D01*
X015964Y031686D01*
X015966Y031651D01*
X015964Y031616D01*
X015958Y031581D01*
X015948Y031547D01*
X015935Y031514D01*
X015918Y031483D01*
X015897Y031455D01*
X015874Y031428D01*
X015847Y031405D01*
X015819Y031384D01*
X015788Y031367D01*
X015755Y031354D01*
X015721Y031344D01*
X015686Y031338D01*
X015651Y031336D01*
X015616Y031338D01*
X015581Y031344D01*
X015547Y031354D01*
X015514Y031367D01*
X015483Y031384D01*
X015455Y031405D01*
X015428Y031428D01*
X015405Y031455D01*
X015384Y031483D01*
X015367Y031514D01*
X015354Y031547D01*
X015344Y031581D01*
X015338Y031616D01*
X015336Y031651D01*
X015336Y027401D02*
X015338Y027436D01*
X015344Y027471D01*
X015354Y027505D01*
X015367Y027538D01*
X015384Y027569D01*
X015405Y027597D01*
X015428Y027624D01*
X015455Y027647D01*
X015483Y027668D01*
X015514Y027685D01*
X015547Y027698D01*
X015581Y027708D01*
X015616Y027714D01*
X015651Y027716D01*
X015686Y027714D01*
X015721Y027708D01*
X015755Y027698D01*
X015788Y027685D01*
X015819Y027668D01*
X015847Y027647D01*
X015874Y027624D01*
X015897Y027597D01*
X015918Y027569D01*
X015935Y027538D01*
X015948Y027505D01*
X015958Y027471D01*
X015964Y027436D01*
X015966Y027401D01*
X015964Y027366D01*
X015958Y027331D01*
X015948Y027297D01*
X015935Y027264D01*
X015918Y027233D01*
X015897Y027205D01*
X015874Y027178D01*
X015847Y027155D01*
X015819Y027134D01*
X015788Y027117D01*
X015755Y027104D01*
X015721Y027094D01*
X015686Y027088D01*
X015651Y027086D01*
X015616Y027088D01*
X015581Y027094D01*
X015547Y027104D01*
X015514Y027117D01*
X015483Y027134D01*
X015455Y027155D01*
X015428Y027178D01*
X015405Y027205D01*
X015384Y027233D01*
X015367Y027264D01*
X015354Y027297D01*
X015344Y027331D01*
X015338Y027366D01*
X015336Y027401D01*
X018836Y031651D02*
X018838Y031686D01*
X018844Y031721D01*
X018854Y031755D01*
X018867Y031788D01*
X018884Y031819D01*
X018905Y031847D01*
X018928Y031874D01*
X018955Y031897D01*
X018983Y031918D01*
X019014Y031935D01*
X019047Y031948D01*
X019081Y031958D01*
X019116Y031964D01*
X019151Y031966D01*
X019186Y031964D01*
X019221Y031958D01*
X019255Y031948D01*
X019288Y031935D01*
X019319Y031918D01*
X019347Y031897D01*
X019374Y031874D01*
X019397Y031847D01*
X019418Y031819D01*
X019435Y031788D01*
X019448Y031755D01*
X019458Y031721D01*
X019464Y031686D01*
X019466Y031651D01*
X019464Y031616D01*
X019458Y031581D01*
X019448Y031547D01*
X019435Y031514D01*
X019418Y031483D01*
X019397Y031455D01*
X019374Y031428D01*
X019347Y031405D01*
X019319Y031384D01*
X019288Y031367D01*
X019255Y031354D01*
X019221Y031344D01*
X019186Y031338D01*
X019151Y031336D01*
X019116Y031338D01*
X019081Y031344D01*
X019047Y031354D01*
X019014Y031367D01*
X018983Y031384D01*
X018955Y031405D01*
X018928Y031428D01*
X018905Y031455D01*
X018884Y031483D01*
X018867Y031514D01*
X018854Y031547D01*
X018844Y031581D01*
X018838Y031616D01*
X018836Y031651D01*
X021336Y027401D02*
X021338Y027436D01*
X021344Y027471D01*
X021354Y027505D01*
X021367Y027538D01*
X021384Y027569D01*
X021405Y027597D01*
X021428Y027624D01*
X021455Y027647D01*
X021483Y027668D01*
X021514Y027685D01*
X021547Y027698D01*
X021581Y027708D01*
X021616Y027714D01*
X021651Y027716D01*
X021686Y027714D01*
X021721Y027708D01*
X021755Y027698D01*
X021788Y027685D01*
X021819Y027668D01*
X021847Y027647D01*
X021874Y027624D01*
X021897Y027597D01*
X021918Y027569D01*
X021935Y027538D01*
X021948Y027505D01*
X021958Y027471D01*
X021964Y027436D01*
X021966Y027401D01*
X021964Y027366D01*
X021958Y027331D01*
X021948Y027297D01*
X021935Y027264D01*
X021918Y027233D01*
X021897Y027205D01*
X021874Y027178D01*
X021847Y027155D01*
X021819Y027134D01*
X021788Y027117D01*
X021755Y027104D01*
X021721Y027094D01*
X021686Y027088D01*
X021651Y027086D01*
X021616Y027088D01*
X021581Y027094D01*
X021547Y027104D01*
X021514Y027117D01*
X021483Y027134D01*
X021455Y027155D01*
X021428Y027178D01*
X021405Y027205D01*
X021384Y027233D01*
X021367Y027264D01*
X021354Y027297D01*
X021344Y027331D01*
X021338Y027366D01*
X021336Y027401D01*
X021336Y021401D02*
X021338Y021436D01*
X021344Y021471D01*
X021354Y021505D01*
X021367Y021538D01*
X021384Y021569D01*
X021405Y021597D01*
X021428Y021624D01*
X021455Y021647D01*
X021483Y021668D01*
X021514Y021685D01*
X021547Y021698D01*
X021581Y021708D01*
X021616Y021714D01*
X021651Y021716D01*
X021686Y021714D01*
X021721Y021708D01*
X021755Y021698D01*
X021788Y021685D01*
X021819Y021668D01*
X021847Y021647D01*
X021874Y021624D01*
X021897Y021597D01*
X021918Y021569D01*
X021935Y021538D01*
X021948Y021505D01*
X021958Y021471D01*
X021964Y021436D01*
X021966Y021401D01*
X021964Y021366D01*
X021958Y021331D01*
X021948Y021297D01*
X021935Y021264D01*
X021918Y021233D01*
X021897Y021205D01*
X021874Y021178D01*
X021847Y021155D01*
X021819Y021134D01*
X021788Y021117D01*
X021755Y021104D01*
X021721Y021094D01*
X021686Y021088D01*
X021651Y021086D01*
X021616Y021088D01*
X021581Y021094D01*
X021547Y021104D01*
X021514Y021117D01*
X021483Y021134D01*
X021455Y021155D01*
X021428Y021178D01*
X021405Y021205D01*
X021384Y021233D01*
X021367Y021264D01*
X021354Y021297D01*
X021344Y021331D01*
X021338Y021366D01*
X021336Y021401D01*
X021336Y015401D02*
X021338Y015436D01*
X021344Y015471D01*
X021354Y015505D01*
X021367Y015538D01*
X021384Y015569D01*
X021405Y015597D01*
X021428Y015624D01*
X021455Y015647D01*
X021483Y015668D01*
X021514Y015685D01*
X021547Y015698D01*
X021581Y015708D01*
X021616Y015714D01*
X021651Y015716D01*
X021686Y015714D01*
X021721Y015708D01*
X021755Y015698D01*
X021788Y015685D01*
X021819Y015668D01*
X021847Y015647D01*
X021874Y015624D01*
X021897Y015597D01*
X021918Y015569D01*
X021935Y015538D01*
X021948Y015505D01*
X021958Y015471D01*
X021964Y015436D01*
X021966Y015401D01*
X021964Y015366D01*
X021958Y015331D01*
X021948Y015297D01*
X021935Y015264D01*
X021918Y015233D01*
X021897Y015205D01*
X021874Y015178D01*
X021847Y015155D01*
X021819Y015134D01*
X021788Y015117D01*
X021755Y015104D01*
X021721Y015094D01*
X021686Y015088D01*
X021651Y015086D01*
X021616Y015088D01*
X021581Y015094D01*
X021547Y015104D01*
X021514Y015117D01*
X021483Y015134D01*
X021455Y015155D01*
X021428Y015178D01*
X021405Y015205D01*
X021384Y015233D01*
X021367Y015264D01*
X021354Y015297D01*
X021344Y015331D01*
X021338Y015366D01*
X021336Y015401D01*
X021336Y009401D02*
X021338Y009436D01*
X021344Y009471D01*
X021354Y009505D01*
X021367Y009538D01*
X021384Y009569D01*
X021405Y009597D01*
X021428Y009624D01*
X021455Y009647D01*
X021483Y009668D01*
X021514Y009685D01*
X021547Y009698D01*
X021581Y009708D01*
X021616Y009714D01*
X021651Y009716D01*
X021686Y009714D01*
X021721Y009708D01*
X021755Y009698D01*
X021788Y009685D01*
X021819Y009668D01*
X021847Y009647D01*
X021874Y009624D01*
X021897Y009597D01*
X021918Y009569D01*
X021935Y009538D01*
X021948Y009505D01*
X021958Y009471D01*
X021964Y009436D01*
X021966Y009401D01*
X021964Y009366D01*
X021958Y009331D01*
X021948Y009297D01*
X021935Y009264D01*
X021918Y009233D01*
X021897Y009205D01*
X021874Y009178D01*
X021847Y009155D01*
X021819Y009134D01*
X021788Y009117D01*
X021755Y009104D01*
X021721Y009094D01*
X021686Y009088D01*
X021651Y009086D01*
X021616Y009088D01*
X021581Y009094D01*
X021547Y009104D01*
X021514Y009117D01*
X021483Y009134D01*
X021455Y009155D01*
X021428Y009178D01*
X021405Y009205D01*
X021384Y009233D01*
X021367Y009264D01*
X021354Y009297D01*
X021344Y009331D01*
X021338Y009366D01*
X021336Y009401D01*
X021336Y003401D02*
X021338Y003436D01*
X021344Y003471D01*
X021354Y003505D01*
X021367Y003538D01*
X021384Y003569D01*
X021405Y003597D01*
X021428Y003624D01*
X021455Y003647D01*
X021483Y003668D01*
X021514Y003685D01*
X021547Y003698D01*
X021581Y003708D01*
X021616Y003714D01*
X021651Y003716D01*
X021686Y003714D01*
X021721Y003708D01*
X021755Y003698D01*
X021788Y003685D01*
X021819Y003668D01*
X021847Y003647D01*
X021874Y003624D01*
X021897Y003597D01*
X021918Y003569D01*
X021935Y003538D01*
X021948Y003505D01*
X021958Y003471D01*
X021964Y003436D01*
X021966Y003401D01*
X021964Y003366D01*
X021958Y003331D01*
X021948Y003297D01*
X021935Y003264D01*
X021918Y003233D01*
X021897Y003205D01*
X021874Y003178D01*
X021847Y003155D01*
X021819Y003134D01*
X021788Y003117D01*
X021755Y003104D01*
X021721Y003094D01*
X021686Y003088D01*
X021651Y003086D01*
X021616Y003088D01*
X021581Y003094D01*
X021547Y003104D01*
X021514Y003117D01*
X021483Y003134D01*
X021455Y003155D01*
X021428Y003178D01*
X021405Y003205D01*
X021384Y003233D01*
X021367Y003264D01*
X021354Y003297D01*
X021344Y003331D01*
X021338Y003366D01*
X021336Y003401D01*
X015336Y003401D02*
X015338Y003436D01*
X015344Y003471D01*
X015354Y003505D01*
X015367Y003538D01*
X015384Y003569D01*
X015405Y003597D01*
X015428Y003624D01*
X015455Y003647D01*
X015483Y003668D01*
X015514Y003685D01*
X015547Y003698D01*
X015581Y003708D01*
X015616Y003714D01*
X015651Y003716D01*
X015686Y003714D01*
X015721Y003708D01*
X015755Y003698D01*
X015788Y003685D01*
X015819Y003668D01*
X015847Y003647D01*
X015874Y003624D01*
X015897Y003597D01*
X015918Y003569D01*
X015935Y003538D01*
X015948Y003505D01*
X015958Y003471D01*
X015964Y003436D01*
X015966Y003401D01*
X015964Y003366D01*
X015958Y003331D01*
X015948Y003297D01*
X015935Y003264D01*
X015918Y003233D01*
X015897Y003205D01*
X015874Y003178D01*
X015847Y003155D01*
X015819Y003134D01*
X015788Y003117D01*
X015755Y003104D01*
X015721Y003094D01*
X015686Y003088D01*
X015651Y003086D01*
X015616Y003088D01*
X015581Y003094D01*
X015547Y003104D01*
X015514Y003117D01*
X015483Y003134D01*
X015455Y003155D01*
X015428Y003178D01*
X015405Y003205D01*
X015384Y003233D01*
X015367Y003264D01*
X015354Y003297D01*
X015344Y003331D01*
X015338Y003366D01*
X015336Y003401D01*
X015336Y009401D02*
X015338Y009436D01*
X015344Y009471D01*
X015354Y009505D01*
X015367Y009538D01*
X015384Y009569D01*
X015405Y009597D01*
X015428Y009624D01*
X015455Y009647D01*
X015483Y009668D01*
X015514Y009685D01*
X015547Y009698D01*
X015581Y009708D01*
X015616Y009714D01*
X015651Y009716D01*
X015686Y009714D01*
X015721Y009708D01*
X015755Y009698D01*
X015788Y009685D01*
X015819Y009668D01*
X015847Y009647D01*
X015874Y009624D01*
X015897Y009597D01*
X015918Y009569D01*
X015935Y009538D01*
X015948Y009505D01*
X015958Y009471D01*
X015964Y009436D01*
X015966Y009401D01*
X015964Y009366D01*
X015958Y009331D01*
X015948Y009297D01*
X015935Y009264D01*
X015918Y009233D01*
X015897Y009205D01*
X015874Y009178D01*
X015847Y009155D01*
X015819Y009134D01*
X015788Y009117D01*
X015755Y009104D01*
X015721Y009094D01*
X015686Y009088D01*
X015651Y009086D01*
X015616Y009088D01*
X015581Y009094D01*
X015547Y009104D01*
X015514Y009117D01*
X015483Y009134D01*
X015455Y009155D01*
X015428Y009178D01*
X015405Y009205D01*
X015384Y009233D01*
X015367Y009264D01*
X015354Y009297D01*
X015344Y009331D01*
X015338Y009366D01*
X015336Y009401D01*
X015336Y015401D02*
X015338Y015436D01*
X015344Y015471D01*
X015354Y015505D01*
X015367Y015538D01*
X015384Y015569D01*
X015405Y015597D01*
X015428Y015624D01*
X015455Y015647D01*
X015483Y015668D01*
X015514Y015685D01*
X015547Y015698D01*
X015581Y015708D01*
X015616Y015714D01*
X015651Y015716D01*
X015686Y015714D01*
X015721Y015708D01*
X015755Y015698D01*
X015788Y015685D01*
X015819Y015668D01*
X015847Y015647D01*
X015874Y015624D01*
X015897Y015597D01*
X015918Y015569D01*
X015935Y015538D01*
X015948Y015505D01*
X015958Y015471D01*
X015964Y015436D01*
X015966Y015401D01*
X015964Y015366D01*
X015958Y015331D01*
X015948Y015297D01*
X015935Y015264D01*
X015918Y015233D01*
X015897Y015205D01*
X015874Y015178D01*
X015847Y015155D01*
X015819Y015134D01*
X015788Y015117D01*
X015755Y015104D01*
X015721Y015094D01*
X015686Y015088D01*
X015651Y015086D01*
X015616Y015088D01*
X015581Y015094D01*
X015547Y015104D01*
X015514Y015117D01*
X015483Y015134D01*
X015455Y015155D01*
X015428Y015178D01*
X015405Y015205D01*
X015384Y015233D01*
X015367Y015264D01*
X015354Y015297D01*
X015344Y015331D01*
X015338Y015366D01*
X015336Y015401D01*
X015336Y021401D02*
X015338Y021436D01*
X015344Y021471D01*
X015354Y021505D01*
X015367Y021538D01*
X015384Y021569D01*
X015405Y021597D01*
X015428Y021624D01*
X015455Y021647D01*
X015483Y021668D01*
X015514Y021685D01*
X015547Y021698D01*
X015581Y021708D01*
X015616Y021714D01*
X015651Y021716D01*
X015686Y021714D01*
X015721Y021708D01*
X015755Y021698D01*
X015788Y021685D01*
X015819Y021668D01*
X015847Y021647D01*
X015874Y021624D01*
X015897Y021597D01*
X015918Y021569D01*
X015935Y021538D01*
X015948Y021505D01*
X015958Y021471D01*
X015964Y021436D01*
X015966Y021401D01*
X015964Y021366D01*
X015958Y021331D01*
X015948Y021297D01*
X015935Y021264D01*
X015918Y021233D01*
X015897Y021205D01*
X015874Y021178D01*
X015847Y021155D01*
X015819Y021134D01*
X015788Y021117D01*
X015755Y021104D01*
X015721Y021094D01*
X015686Y021088D01*
X015651Y021086D01*
X015616Y021088D01*
X015581Y021094D01*
X015547Y021104D01*
X015514Y021117D01*
X015483Y021134D01*
X015455Y021155D01*
X015428Y021178D01*
X015405Y021205D01*
X015384Y021233D01*
X015367Y021264D01*
X015354Y021297D01*
X015344Y021331D01*
X015338Y021366D01*
X015336Y021401D01*
X009336Y021401D02*
X009338Y021436D01*
X009344Y021471D01*
X009354Y021505D01*
X009367Y021538D01*
X009384Y021569D01*
X009405Y021597D01*
X009428Y021624D01*
X009455Y021647D01*
X009483Y021668D01*
X009514Y021685D01*
X009547Y021698D01*
X009581Y021708D01*
X009616Y021714D01*
X009651Y021716D01*
X009686Y021714D01*
X009721Y021708D01*
X009755Y021698D01*
X009788Y021685D01*
X009819Y021668D01*
X009847Y021647D01*
X009874Y021624D01*
X009897Y021597D01*
X009918Y021569D01*
X009935Y021538D01*
X009948Y021505D01*
X009958Y021471D01*
X009964Y021436D01*
X009966Y021401D01*
X009964Y021366D01*
X009958Y021331D01*
X009948Y021297D01*
X009935Y021264D01*
X009918Y021233D01*
X009897Y021205D01*
X009874Y021178D01*
X009847Y021155D01*
X009819Y021134D01*
X009788Y021117D01*
X009755Y021104D01*
X009721Y021094D01*
X009686Y021088D01*
X009651Y021086D01*
X009616Y021088D01*
X009581Y021094D01*
X009547Y021104D01*
X009514Y021117D01*
X009483Y021134D01*
X009455Y021155D01*
X009428Y021178D01*
X009405Y021205D01*
X009384Y021233D01*
X009367Y021264D01*
X009354Y021297D01*
X009344Y021331D01*
X009338Y021366D01*
X009336Y021401D01*
X009336Y015401D02*
X009338Y015436D01*
X009344Y015471D01*
X009354Y015505D01*
X009367Y015538D01*
X009384Y015569D01*
X009405Y015597D01*
X009428Y015624D01*
X009455Y015647D01*
X009483Y015668D01*
X009514Y015685D01*
X009547Y015698D01*
X009581Y015708D01*
X009616Y015714D01*
X009651Y015716D01*
X009686Y015714D01*
X009721Y015708D01*
X009755Y015698D01*
X009788Y015685D01*
X009819Y015668D01*
X009847Y015647D01*
X009874Y015624D01*
X009897Y015597D01*
X009918Y015569D01*
X009935Y015538D01*
X009948Y015505D01*
X009958Y015471D01*
X009964Y015436D01*
X009966Y015401D01*
X009964Y015366D01*
X009958Y015331D01*
X009948Y015297D01*
X009935Y015264D01*
X009918Y015233D01*
X009897Y015205D01*
X009874Y015178D01*
X009847Y015155D01*
X009819Y015134D01*
X009788Y015117D01*
X009755Y015104D01*
X009721Y015094D01*
X009686Y015088D01*
X009651Y015086D01*
X009616Y015088D01*
X009581Y015094D01*
X009547Y015104D01*
X009514Y015117D01*
X009483Y015134D01*
X009455Y015155D01*
X009428Y015178D01*
X009405Y015205D01*
X009384Y015233D01*
X009367Y015264D01*
X009354Y015297D01*
X009344Y015331D01*
X009338Y015366D01*
X009336Y015401D01*
X009336Y009401D02*
X009338Y009436D01*
X009344Y009471D01*
X009354Y009505D01*
X009367Y009538D01*
X009384Y009569D01*
X009405Y009597D01*
X009428Y009624D01*
X009455Y009647D01*
X009483Y009668D01*
X009514Y009685D01*
X009547Y009698D01*
X009581Y009708D01*
X009616Y009714D01*
X009651Y009716D01*
X009686Y009714D01*
X009721Y009708D01*
X009755Y009698D01*
X009788Y009685D01*
X009819Y009668D01*
X009847Y009647D01*
X009874Y009624D01*
X009897Y009597D01*
X009918Y009569D01*
X009935Y009538D01*
X009948Y009505D01*
X009958Y009471D01*
X009964Y009436D01*
X009966Y009401D01*
X009964Y009366D01*
X009958Y009331D01*
X009948Y009297D01*
X009935Y009264D01*
X009918Y009233D01*
X009897Y009205D01*
X009874Y009178D01*
X009847Y009155D01*
X009819Y009134D01*
X009788Y009117D01*
X009755Y009104D01*
X009721Y009094D01*
X009686Y009088D01*
X009651Y009086D01*
X009616Y009088D01*
X009581Y009094D01*
X009547Y009104D01*
X009514Y009117D01*
X009483Y009134D01*
X009455Y009155D01*
X009428Y009178D01*
X009405Y009205D01*
X009384Y009233D01*
X009367Y009264D01*
X009354Y009297D01*
X009344Y009331D01*
X009338Y009366D01*
X009336Y009401D01*
X009336Y003401D02*
X009338Y003436D01*
X009344Y003471D01*
X009354Y003505D01*
X009367Y003538D01*
X009384Y003569D01*
X009405Y003597D01*
X009428Y003624D01*
X009455Y003647D01*
X009483Y003668D01*
X009514Y003685D01*
X009547Y003698D01*
X009581Y003708D01*
X009616Y003714D01*
X009651Y003716D01*
X009686Y003714D01*
X009721Y003708D01*
X009755Y003698D01*
X009788Y003685D01*
X009819Y003668D01*
X009847Y003647D01*
X009874Y003624D01*
X009897Y003597D01*
X009918Y003569D01*
X009935Y003538D01*
X009948Y003505D01*
X009958Y003471D01*
X009964Y003436D01*
X009966Y003401D01*
X009964Y003366D01*
X009958Y003331D01*
X009948Y003297D01*
X009935Y003264D01*
X009918Y003233D01*
X009897Y003205D01*
X009874Y003178D01*
X009847Y003155D01*
X009819Y003134D01*
X009788Y003117D01*
X009755Y003104D01*
X009721Y003094D01*
X009686Y003088D01*
X009651Y003086D01*
X009616Y003088D01*
X009581Y003094D01*
X009547Y003104D01*
X009514Y003117D01*
X009483Y003134D01*
X009455Y003155D01*
X009428Y003178D01*
X009405Y003205D01*
X009384Y003233D01*
X009367Y003264D01*
X009354Y003297D01*
X009344Y003331D01*
X009338Y003366D01*
X009336Y003401D01*
X027336Y003401D02*
X027338Y003436D01*
X027344Y003471D01*
X027354Y003505D01*
X027367Y003538D01*
X027384Y003569D01*
X027405Y003597D01*
X027428Y003624D01*
X027455Y003647D01*
X027483Y003668D01*
X027514Y003685D01*
X027547Y003698D01*
X027581Y003708D01*
X027616Y003714D01*
X027651Y003716D01*
X027686Y003714D01*
X027721Y003708D01*
X027755Y003698D01*
X027788Y003685D01*
X027819Y003668D01*
X027847Y003647D01*
X027874Y003624D01*
X027897Y003597D01*
X027918Y003569D01*
X027935Y003538D01*
X027948Y003505D01*
X027958Y003471D01*
X027964Y003436D01*
X027966Y003401D01*
X027964Y003366D01*
X027958Y003331D01*
X027948Y003297D01*
X027935Y003264D01*
X027918Y003233D01*
X027897Y003205D01*
X027874Y003178D01*
X027847Y003155D01*
X027819Y003134D01*
X027788Y003117D01*
X027755Y003104D01*
X027721Y003094D01*
X027686Y003088D01*
X027651Y003086D01*
X027616Y003088D01*
X027581Y003094D01*
X027547Y003104D01*
X027514Y003117D01*
X027483Y003134D01*
X027455Y003155D01*
X027428Y003178D01*
X027405Y003205D01*
X027384Y003233D01*
X027367Y003264D01*
X027354Y003297D01*
X027344Y003331D01*
X027338Y003366D01*
X027336Y003401D01*
X027336Y009401D02*
X027338Y009436D01*
X027344Y009471D01*
X027354Y009505D01*
X027367Y009538D01*
X027384Y009569D01*
X027405Y009597D01*
X027428Y009624D01*
X027455Y009647D01*
X027483Y009668D01*
X027514Y009685D01*
X027547Y009698D01*
X027581Y009708D01*
X027616Y009714D01*
X027651Y009716D01*
X027686Y009714D01*
X027721Y009708D01*
X027755Y009698D01*
X027788Y009685D01*
X027819Y009668D01*
X027847Y009647D01*
X027874Y009624D01*
X027897Y009597D01*
X027918Y009569D01*
X027935Y009538D01*
X027948Y009505D01*
X027958Y009471D01*
X027964Y009436D01*
X027966Y009401D01*
X027964Y009366D01*
X027958Y009331D01*
X027948Y009297D01*
X027935Y009264D01*
X027918Y009233D01*
X027897Y009205D01*
X027874Y009178D01*
X027847Y009155D01*
X027819Y009134D01*
X027788Y009117D01*
X027755Y009104D01*
X027721Y009094D01*
X027686Y009088D01*
X027651Y009086D01*
X027616Y009088D01*
X027581Y009094D01*
X027547Y009104D01*
X027514Y009117D01*
X027483Y009134D01*
X027455Y009155D01*
X027428Y009178D01*
X027405Y009205D01*
X027384Y009233D01*
X027367Y009264D01*
X027354Y009297D01*
X027344Y009331D01*
X027338Y009366D01*
X027336Y009401D01*
X027336Y015401D02*
X027338Y015436D01*
X027344Y015471D01*
X027354Y015505D01*
X027367Y015538D01*
X027384Y015569D01*
X027405Y015597D01*
X027428Y015624D01*
X027455Y015647D01*
X027483Y015668D01*
X027514Y015685D01*
X027547Y015698D01*
X027581Y015708D01*
X027616Y015714D01*
X027651Y015716D01*
X027686Y015714D01*
X027721Y015708D01*
X027755Y015698D01*
X027788Y015685D01*
X027819Y015668D01*
X027847Y015647D01*
X027874Y015624D01*
X027897Y015597D01*
X027918Y015569D01*
X027935Y015538D01*
X027948Y015505D01*
X027958Y015471D01*
X027964Y015436D01*
X027966Y015401D01*
X027964Y015366D01*
X027958Y015331D01*
X027948Y015297D01*
X027935Y015264D01*
X027918Y015233D01*
X027897Y015205D01*
X027874Y015178D01*
X027847Y015155D01*
X027819Y015134D01*
X027788Y015117D01*
X027755Y015104D01*
X027721Y015094D01*
X027686Y015088D01*
X027651Y015086D01*
X027616Y015088D01*
X027581Y015094D01*
X027547Y015104D01*
X027514Y015117D01*
X027483Y015134D01*
X027455Y015155D01*
X027428Y015178D01*
X027405Y015205D01*
X027384Y015233D01*
X027367Y015264D01*
X027354Y015297D01*
X027344Y015331D01*
X027338Y015366D01*
X027336Y015401D01*
X027336Y021401D02*
X027338Y021436D01*
X027344Y021471D01*
X027354Y021505D01*
X027367Y021538D01*
X027384Y021569D01*
X027405Y021597D01*
X027428Y021624D01*
X027455Y021647D01*
X027483Y021668D01*
X027514Y021685D01*
X027547Y021698D01*
X027581Y021708D01*
X027616Y021714D01*
X027651Y021716D01*
X027686Y021714D01*
X027721Y021708D01*
X027755Y021698D01*
X027788Y021685D01*
X027819Y021668D01*
X027847Y021647D01*
X027874Y021624D01*
X027897Y021597D01*
X027918Y021569D01*
X027935Y021538D01*
X027948Y021505D01*
X027958Y021471D01*
X027964Y021436D01*
X027966Y021401D01*
X027964Y021366D01*
X027958Y021331D01*
X027948Y021297D01*
X027935Y021264D01*
X027918Y021233D01*
X027897Y021205D01*
X027874Y021178D01*
X027847Y021155D01*
X027819Y021134D01*
X027788Y021117D01*
X027755Y021104D01*
X027721Y021094D01*
X027686Y021088D01*
X027651Y021086D01*
X027616Y021088D01*
X027581Y021094D01*
X027547Y021104D01*
X027514Y021117D01*
X027483Y021134D01*
X027455Y021155D01*
X027428Y021178D01*
X027405Y021205D01*
X027384Y021233D01*
X027367Y021264D01*
X027354Y021297D01*
X027344Y021331D01*
X027338Y021366D01*
X027336Y021401D01*
X027336Y027401D02*
X027338Y027436D01*
X027344Y027471D01*
X027354Y027505D01*
X027367Y027538D01*
X027384Y027569D01*
X027405Y027597D01*
X027428Y027624D01*
X027455Y027647D01*
X027483Y027668D01*
X027514Y027685D01*
X027547Y027698D01*
X027581Y027708D01*
X027616Y027714D01*
X027651Y027716D01*
X027686Y027714D01*
X027721Y027708D01*
X027755Y027698D01*
X027788Y027685D01*
X027819Y027668D01*
X027847Y027647D01*
X027874Y027624D01*
X027897Y027597D01*
X027918Y027569D01*
X027935Y027538D01*
X027948Y027505D01*
X027958Y027471D01*
X027964Y027436D01*
X027966Y027401D01*
X027964Y027366D01*
X027958Y027331D01*
X027948Y027297D01*
X027935Y027264D01*
X027918Y027233D01*
X027897Y027205D01*
X027874Y027178D01*
X027847Y027155D01*
X027819Y027134D01*
X027788Y027117D01*
X027755Y027104D01*
X027721Y027094D01*
X027686Y027088D01*
X027651Y027086D01*
X027616Y027088D01*
X027581Y027094D01*
X027547Y027104D01*
X027514Y027117D01*
X027483Y027134D01*
X027455Y027155D01*
X027428Y027178D01*
X027405Y027205D01*
X027384Y027233D01*
X027367Y027264D01*
X027354Y027297D01*
X027344Y027331D01*
X027338Y027366D01*
X027336Y027401D01*
X015336Y036401D02*
X015338Y036436D01*
X015344Y036471D01*
X015354Y036505D01*
X015367Y036538D01*
X015384Y036569D01*
X015405Y036597D01*
X015428Y036624D01*
X015455Y036647D01*
X015483Y036668D01*
X015514Y036685D01*
X015547Y036698D01*
X015581Y036708D01*
X015616Y036714D01*
X015651Y036716D01*
X015686Y036714D01*
X015721Y036708D01*
X015755Y036698D01*
X015788Y036685D01*
X015819Y036668D01*
X015847Y036647D01*
X015874Y036624D01*
X015897Y036597D01*
X015918Y036569D01*
X015935Y036538D01*
X015948Y036505D01*
X015958Y036471D01*
X015964Y036436D01*
X015966Y036401D01*
X015964Y036366D01*
X015958Y036331D01*
X015948Y036297D01*
X015935Y036264D01*
X015918Y036233D01*
X015897Y036205D01*
X015874Y036178D01*
X015847Y036155D01*
X015819Y036134D01*
X015788Y036117D01*
X015755Y036104D01*
X015721Y036094D01*
X015686Y036088D01*
X015651Y036086D01*
X015616Y036088D01*
X015581Y036094D01*
X015547Y036104D01*
X015514Y036117D01*
X015483Y036134D01*
X015455Y036155D01*
X015428Y036178D01*
X015405Y036205D01*
X015384Y036233D01*
X015367Y036264D01*
X015354Y036297D01*
X015344Y036331D01*
X015338Y036366D01*
X015336Y036401D01*
X009336Y036401D02*
X009338Y036436D01*
X009344Y036471D01*
X009354Y036505D01*
X009367Y036538D01*
X009384Y036569D01*
X009405Y036597D01*
X009428Y036624D01*
X009455Y036647D01*
X009483Y036668D01*
X009514Y036685D01*
X009547Y036698D01*
X009581Y036708D01*
X009616Y036714D01*
X009651Y036716D01*
X009686Y036714D01*
X009721Y036708D01*
X009755Y036698D01*
X009788Y036685D01*
X009819Y036668D01*
X009847Y036647D01*
X009874Y036624D01*
X009897Y036597D01*
X009918Y036569D01*
X009935Y036538D01*
X009948Y036505D01*
X009958Y036471D01*
X009964Y036436D01*
X009966Y036401D01*
X009964Y036366D01*
X009958Y036331D01*
X009948Y036297D01*
X009935Y036264D01*
X009918Y036233D01*
X009897Y036205D01*
X009874Y036178D01*
X009847Y036155D01*
X009819Y036134D01*
X009788Y036117D01*
X009755Y036104D01*
X009721Y036094D01*
X009686Y036088D01*
X009651Y036086D01*
X009616Y036088D01*
X009581Y036094D01*
X009547Y036104D01*
X009514Y036117D01*
X009483Y036134D01*
X009455Y036155D01*
X009428Y036178D01*
X009405Y036205D01*
X009384Y036233D01*
X009367Y036264D01*
X009354Y036297D01*
X009344Y036331D01*
X009338Y036366D01*
X009336Y036401D01*
X003336Y036401D02*
X003338Y036436D01*
X003344Y036471D01*
X003354Y036505D01*
X003367Y036538D01*
X003384Y036569D01*
X003405Y036597D01*
X003428Y036624D01*
X003455Y036647D01*
X003483Y036668D01*
X003514Y036685D01*
X003547Y036698D01*
X003581Y036708D01*
X003616Y036714D01*
X003651Y036716D01*
X003686Y036714D01*
X003721Y036708D01*
X003755Y036698D01*
X003788Y036685D01*
X003819Y036668D01*
X003847Y036647D01*
X003874Y036624D01*
X003897Y036597D01*
X003918Y036569D01*
X003935Y036538D01*
X003948Y036505D01*
X003958Y036471D01*
X003964Y036436D01*
X003966Y036401D01*
X003964Y036366D01*
X003958Y036331D01*
X003948Y036297D01*
X003935Y036264D01*
X003918Y036233D01*
X003897Y036205D01*
X003874Y036178D01*
X003847Y036155D01*
X003819Y036134D01*
X003788Y036117D01*
X003755Y036104D01*
X003721Y036094D01*
X003686Y036088D01*
X003651Y036086D01*
X003616Y036088D01*
X003581Y036094D01*
X003547Y036104D01*
X003514Y036117D01*
X003483Y036134D01*
X003455Y036155D01*
X003428Y036178D01*
X003405Y036205D01*
X003384Y036233D01*
X003367Y036264D01*
X003354Y036297D01*
X003344Y036331D01*
X003338Y036366D01*
X003336Y036401D01*
D13*
X024651Y035401D03*
D14*
X019730Y035401D03*
X029572Y035401D03*
M02*
